<?xml version="1.0" encoding="utf-8"?>
<!-- Generator: Adobe Illustrator 16.0.0, SVG Export Plug-In . SVG Version: 6.00 Build 0)  -->
<!DOCTYPE svg PUBLIC "-//W3C//DTD SVG 1.1//EN" "http://www.w3.org/Graphics/SVG/1.1/DTD/svg11.dtd">
<svg version="1.1" xmlns="http://www.w3.org/2000/svg" xmlns:xlink="http://www.w3.org/1999/xlink" x="0px" y="0px" width="1000px"
	 height="1000px" viewBox="0 0 1000 1000" enable-background="new 0 0 1000 1000" xml:space="preserve">
<g id="Ebene_4">
	<rect x="0.302" y="0.302" fill="#FFD143" width="999.396" height="999.396"/>
</g>
<g id="Ebene_3">
	<g>
		<g>
			<g>
				<path fill="#FA8613" d="M451.65,659.979l11.836,22.812c5.231-14.294,12.311-33.977,14.114-39.877L451.65,659.979z"/>
				<path fill="#FA8613" d="M408.556,682.79l11.833-22.813l-25.95-17.063C396.243,648.813,403.322,668.496,408.556,682.79"/>
				<polygon fill="#FA8613" points="436.018,705.643 422.456,696.281 410.409,708.323 436.022,726.146 461.629,708.323 
					449.584,696.281 				"/>
				<polygon fill="#FA8613" points="436.017,729.05 410.344,711.152 428.825,803.939 434.663,801.245 434.654,744.292 
					437.382,744.292 437.373,801.245 443.212,803.939 461.694,711.152 				"/>
				<polygon fill="#FA8613" points="464.636,802.539 480.193,800.954 467.796,792.732 462.715,796.109 461.445,794.249 
					467.824,789.992 472.192,792.96 477.837,786.138 457.296,746.999 446.694,800.176 				"/>
				<polygon fill="#FA8613" points="425.345,800.176 414.742,746.999 394.202,786.138 399.847,792.96 404.216,789.992 
					410.594,794.249 409.324,796.109 404.244,792.732 391.846,800.954 407.404,802.539 				"/>
				<path fill="#FA8613" d="M395.659,778.188l6.645-12.751l-24.256-39.407C382.045,737.681,390.071,761.535,395.659,778.188"/>
				<path fill="#FA8613" d="M448.489,674.093c-0.912,0-1.655,0.741-1.655,1.655c0,0.912,0.743,1.656,1.655,1.656
					c0.913,0,1.654-0.744,1.654-1.656C450.142,674.834,449.402,674.093,448.489,674.093"/>
				<path fill="#FA8613" d="M449.206,660.492h-26.369l-12.628,24.309l25.808,17.958l25.813-17.958L449.206,660.492z
					 M426.379,676.397h-1.951v1.953h-1.304v-1.953h-1.953v-1.304h1.953v-1.951h1.304v1.951h1.951V676.397z M436.02,681.233
					l-1.753-1.606l0.709-0.746l-0.003-0.002h0.007l-0.004,0.002l1.041,1.098l1.046-1.1l0.713,0.748L436.02,681.233z
					 M448.489,678.566c-1.553,0-2.817-1.266-2.817-2.819c0-1.556,1.265-2.82,2.817-2.82c1.555,0,2.818,1.265,2.818,2.82
					C451.306,677.301,450.043,678.566,448.489,678.566"/>
			</g>
		</g>
		<g>
			<g>
				<path fill="#FA8613" d="M593.887,339.029l-11.506-22.178c-5.087,13.896-11.97,33.033-13.723,38.766L593.887,339.029z"/>
				<path fill="#FA8613" d="M635.784,316.851l-11.506,22.179l25.229,16.587C647.752,349.884,640.87,330.747,635.784,316.851"/>
				<polygon fill="#FA8613" points="609.084,294.633 622.269,303.733 633.979,292.025 609.08,274.702 584.186,292.025 
					595.894,303.733 				"/>
				<polygon fill="#FA8613" points="609.084,271.876 634.047,289.276 616.076,199.07 610.402,201.69 610.411,257.059 
					607.758,257.059 607.768,201.69 602.088,199.07 584.123,289.276 				"/>
				<polygon fill="#FA8613" points="581.264,200.432 566.138,201.973 578.191,209.967 583.128,206.685 584.365,208.49 
					578.161,212.631 573.916,209.745 568.43,216.377 588.399,254.427 598.707,202.73 				"/>
				<polygon fill="#FA8613" points="619.459,202.73 629.769,254.427 649.738,216.377 644.247,209.745 640.003,212.631 
					633.801,208.49 635.033,206.685 639.974,209.967 652.029,201.973 636.904,200.432 				"/>
				<path fill="#FA8613" d="M648.319,224.106l-6.458,12.395l23.582,38.314C661.557,263.485,653.754,240.294,648.319,224.106"/>
				<path fill="#FA8613" d="M596.961,325.307c0.885,0,1.604-0.722,1.604-1.61c0-0.887-0.72-1.609-1.604-1.609
					c-0.886,0-1.609,0.723-1.609,1.609C595.352,324.584,596.075,325.307,596.961,325.307"/>
				<path fill="#FA8613" d="M596.264,338.53H621.9l12.275-23.637l-25.089-17.456l-25.096,17.456L596.264,338.53z M618.454,323.064
					h1.896v-1.899h1.267v1.899h1.9v1.265h-1.9v1.898h-1.267v-1.898h-1.896V323.064z M609.08,318.362l1.705,1.563l-0.689,0.725
					l0.002,0.003h-0.004l0.002-0.003l-1.01-1.067l-1.019,1.07l-0.692-0.728L609.08,318.362z M596.961,320.956
					c1.509,0,2.737,1.229,2.737,2.741c0,1.51-1.229,2.741-2.737,2.741c-1.513,0-2.741-1.23-2.741-2.741
					C594.22,322.184,595.448,320.956,596.961,320.956"/>
			</g>
		</g>
		<g>
			<g>
				<polygon fill="#F7A422" points="591.482,551.042 785.513,551.042 750.251,615.817 591.482,615.817 				"/>
			</g>
			<g>
				<polygon fill="#FCD64D" points="327.575,455.356 337.771,469.566 337.771,590.845 327.575,605.073 				"/>
			</g>
			<g>
				<polygon fill="#F78512" points="312.58,489.588 323.244,486.685 319.603,472.724 312.58,474.631 312.58,462.115 
					327.575,455.356 327.575,605.073 312.58,598.954 				"/>
			</g>
			<g>
				<rect x="269.994" y="521.354" fill="#FA8613" width="164.343" height="1.196"/>
			</g>
			<g>
				<path fill="#F8A622" d="M353.801,580.5c-27.826,0-50.379-22.556-50.379-50.376c0-27.822,22.553-50.377,50.379-50.377
					c27.82,0,50.375,22.555,50.375,50.377c0,9.419-2.587,18.233-7.086,25.776l-28.287-31.776l-15.087,22.448l24.558,27.591
					C371.027,578.2,362.683,580.5,353.801,580.5z"/>
			</g>
			<g>
				<circle fill="#F58213" cx="374.723" cy="493.615" r="22.526"/>
			</g>
			<g>
				<polygon fill="#F68412" points="327.51,529.447 323.311,529.447 305.784,582.828 327.668,582.828 				"/>
			</g>
			<g>
				<polygon fill="#FAA723" points="253.147,590.307 271.748,457.467 284.941,459.314 263.813,610.215 				"/>
			</g>
			<g>
				<polygon fill="#E0862A" points="392.952,512.467 355.51,474.996 355.934,474.571 392.353,511.018 392.353,438.506 
					373.242,457.687 372.819,457.264 392.952,437.055 				"/>
			</g>
			<g>
				
					<rect x="357.642" y="486.887" transform="matrix(0.7067 0.7075 -0.7075 0.7067 466.072 -103.8088)" fill="#F58213" width="1.201" height="46.7"/>
			</g>
			<g>
				
					<rect x="340.5" y="524.609" transform="matrix(0.7072 -0.707 0.707 0.7072 -273.424 399.8653)" fill="#FFFFAE" width="11.063" height="10.838"/>
				<path fill="#F58213" d="M345.953,538.62l-8.513-8.512l8.671-8.674l8.513,8.514L345.953,538.62z M339.136,530.108l6.817,6.814
					l6.976-6.975l-6.817-6.817L339.136,530.108z"/>
			</g>
			<g>
				
					<rect x="399.786" y="563.955" transform="matrix(0.6931 0.7208 -0.7208 0.6931 561.3013 -103.0773)" fill="#FDD951" width="3.838" height="87.397"/>
			</g>
			<g>
				
					<rect x="392.13" y="556.14" transform="matrix(0.6632 0.7484 -0.7484 0.6632 581.6326 -92.9064)" fill="#F98514" width="3.84" height="87.387"/>
			</g>
			<g>
				
					<rect x="346.117" y="573.923" transform="matrix(0.6597 0.7515 -0.7515 0.6597 571.9899 -114.8165)" fill="#FA8613" width="133.333" height="0.6"/>
			</g>
			<g>
				<path fill="#FDD950" d="M456.765,624.215h0.362v-31.788h-0.362c8.604,0,15.579,7.288,15.579,15.895
					C472.344,616.926,465.369,624.215,456.765,624.215z"/>
			</g>
			<g>
				
					<rect x="274.334" y="504.885" transform="matrix(0.9905 0.1377 -0.1377 0.9905 80.1073 -32.5008)" fill="#F98514" width="1.198" height="115.584"/>
			</g>
			<g>
				<polygon fill="#F58212" points="244.804,610.179 261.74,619.957 244.804,629.736 				"/>
			</g>
			<g>
				<polygon fill="#F7A422" points="456.723,555.033 728.793,445.63 440.892,522.285 				"/>
			</g>
			<g>
				<path fill="#F9A623" d="M627.563,607.827c-36.532,0.003-69.188-25.939-76.3-63.112l0.588-0.115
					c7.991,41.76,48.471,69.238,90.229,61.246c41.76-7.987,69.239-48.461,61.259-90.219l0.589-0.115
					c8.043,42.085-19.65,82.873-61.735,90.925C637.284,607.372,632.387,607.827,627.563,607.827z"/>
			</g>
			<g>
				<path fill="#FA8613" d="M545.084,707.987c-41.57,0-82.174-12.394-117.326-36.263c-46.326-31.452-77.631-79.063-88.152-134.059
					c-10.519-54.998,1.007-110.803,32.455-157.132c31.448-46.33,79.053-77.642,134.046-88.167l0.113,0.589
					c-113.199,21.667-187.677,131.393-166.024,244.596c21.652,113.205,131.363,187.698,244.571,166.06l0.114,0.587
					C571.616,706.734,558.299,707.987,545.084,707.987z"/>
			</g>
			<g>
				
					<rect x="627.477" y="406.583" transform="matrix(0.6363 0.7715 -0.7715 0.6363 642.6529 -289.5314)" fill="#F7A422" width="1.799" height="260.379"/>
			</g>
			<g>
				<path fill="#FB9A14" d="M551.625,556.985c-7.298,0-13.215-5.916-13.215-13.214c0-7.3,5.917-13.215,13.215-13.215
					c7.295,0,13.212,5.915,13.212,13.215C564.837,551.069,558.92,556.985,551.625,556.985z"/>
				<path fill="#E0862A" d="M551.625,557.286c-7.452,0-13.515-6.063-13.515-13.515s6.063-13.516,13.515-13.516
					c7.45,0,13.515,6.064,13.515,13.516S559.075,557.286,551.625,557.286z M551.625,530.855c-7.122,0-12.916,5.795-12.916,12.916
					c0,7.119,5.794,12.915,12.916,12.915c7.121,0,12.914-5.796,12.914-12.915C564.539,536.65,558.746,530.855,551.625,530.855z"/>
			</g>
			<g>
				<path fill="#FDD950" d="M225.311,555.958v-49.002h33.026L225.311,555.958z M226.51,508.156v43.876l29.571-43.876H226.51z"/>
			</g>
			<g>
				
					<rect x="227.588" y="495.892" transform="matrix(0.8157 0.5785 -0.5785 0.8157 342.3072 -36.3464)" fill="#FDD950" width="1.198" height="46.151"/>
			</g>
		</g>
		<path fill="#F7A422" d="M672.523,654.041l-0.354-0.354l-16.818,16.819l0.352,0.354c-4.551-4.556-4.387-12.101,0.165-16.652
			C660.421,649.655,667.969,649.488,672.523,654.041z"/>
		<path fill="#F7A422" d="M689.023,662.292l-0.351-0.353l-25.07,25.07l0.351,0.352c-6.806-6.809-6.6-18.054,0.207-24.863
			C670.971,655.692,682.216,655.482,689.023,662.292z"/>
		<path fill="#F7A422" d="M787.4,760.669l-0.351-0.351l-25.07,25.069l0.351,0.35c-6.809-6.809-6.598-18.054,0.207-24.859
			C769.35,754.069,780.591,753.861,787.4,760.669z"/>
		
			<line fill="none" stroke="#F7A422" stroke-width="1.1996" stroke-miterlimit="10" x1="655.828" y1="654.164" x2="855.12" y2="853.458"/>
		<path fill="#F7A422" d="M334.745,352.301l0.353,0.353l16.818-16.82l-0.352-0.352c4.552,4.553,4.387,12.102-0.166,16.652
			C346.845,356.687,339.297,356.854,334.745,352.301z"/>
		<path fill="#F7A422" d="M318.244,344.052l0.351,0.35l25.07-25.07l-0.35-0.353c6.807,6.808,6.599,18.055-0.208,24.861
			C336.297,350.649,325.051,350.859,318.244,344.052z"/>
		<path fill="#F7A422" d="M219.865,245.674l0.352,0.351l25.07-25.07l-0.351-0.352c6.807,6.809,6.598,18.054-0.208,24.861
			C237.919,252.272,226.675,252.48,219.865,245.674z"/>
		
			<line fill="none" stroke="#F7A422" stroke-width="1.1996" stroke-miterlimit="10" x1="351.44" y1="352.178" x2="152.146" y2="152.883"/>
		<path fill="#FFFFC8" d="M197.5,598.74V406.866l2.438,0.004c25.817,0.028,49.975,10.021,67.993,28.138
			c17.956,18.051,27.851,42.127,27.851,67.794c0,25.668-9.884,49.747-27.837,67.797c-18.019,18.116-42.193,28.11-68.01,28.139
			L197.5,598.74z M202.5,411.702v182.204c49-1.334,88.623-41.71,88.623-91.104C291.123,453.411,251.5,413.035,202.5,411.702z"/>
		<g>
			<path fill="#FFFFC8" d="M197.5,616.862V608.5h5v3.552c1-0.011,2.305-0.039,3.541-0.108l0.228,4.792
				c-2.063,0.113-3.795,0.123-6.316,0.125L197.5,616.862z"/>
			<path fill="#FFFFC8" d="M202.5,596.5h-5v-13h5V596.5z M202.5,572.5h-5v-16h5V572.5z M202.5,545.5h-5v-14h5V545.5z M202.5,519.5
				h-5v-12h5V519.5z M202.5,495.5h-5v-13h5V495.5z M202.5,470.5h-5v-14h5V470.5z M202.5,444.5h-5v-13h5V444.5z M202.5,421.5h-5v-14
				h5V421.5z"/>
			<path fill="#FFFFC8" d="M202.5,398.5h-5v-9.757l2.437,0.002c2.469,0.002,4.246,0.074,6.283,0.186l-0.19,4.79
				c-1.229-0.067-2.53-0.119-3.53-0.15V398.5z"/>
			<path fill="#FFFFC8" d="M219.314,615.309l-0.82-4.839c4.015-0.682,8.031-1.599,11.937-2.725l1.36,4.717
				C227.707,613.639,223.51,614.596,219.314,615.309z M243.866,608.229l-1.882-4.536c3.752-1.558,7.459-3.349,11.018-5.323
				l2.381,4.294C251.664,604.726,247.791,606.598,243.866,608.229z M266.203,595.843l-2.847-4c3.315-2.36,6.533-4.93,9.566-7.645
				l3.273,3.657C273.029,590.691,269.667,593.38,266.203,595.843z M285.239,578.805l-3.66-3.271
				c2.712-3.035,5.283-6.258,7.638-9.575l4.004,2.843C290.76,572.266,288.073,575.633,285.239,578.805z M300.034,557.97
				l-4.295-2.379c1.971-3.562,3.761-7.274,5.316-11.035l4.537,1.88C303.965,550.364,302.095,554.243,300.034,557.97z
				 M309.814,534.348l-4.718-1.355c1.122-3.906,2.034-7.926,2.708-11.938l4.842,0.814
				C311.94,526.064,310.987,530.262,309.814,534.348z M314.057,509.152l-4.901-0.269c0.109-2.011,0.166-4.056,0.166-6.082
				c0-2.052-0.058-4.127-0.171-6.166l4.901-0.274c0.118,2.131,0.179,4.299,0.179,6.439
				C314.232,504.916,314.173,507.054,314.057,509.152z M307.79,484.465c-0.68-4.014-1.593-8.031-2.719-11.937l4.717-1.359
				c1.177,4.083,2.133,8.281,2.842,12.477L307.79,484.465z M301.026,460.973c-1.559-3.752-3.349-7.46-5.321-11.02l4.294-2.379
				c2.061,3.721,3.931,7.595,5.559,11.518L301.026,460.973z M289.181,439.596c-2.357-3.314-4.927-6.533-7.643-9.567l3.659-3.273
				c2.835,3.17,5.522,6.533,7.985,9.996L289.181,439.596z M272.878,421.368c-3.035-2.714-6.257-5.285-9.571-7.642l2.843-4.002
				c3.464,2.462,6.829,5.148,10.001,7.984L272.878,421.368z M252.939,407.201c-3.564-1.973-7.276-3.763-11.032-5.321l1.88-4.535
				c3.927,1.627,7.806,3.499,11.532,5.561L252.939,407.201z M230.345,397.836c-3.907-1.124-7.925-2.035-11.939-2.712l0.816-4.842
				c4.197,0.708,8.395,1.663,12.479,2.836L230.345,397.836z"/>
		</g>
		<path fill="#FFFFC8" d="M489.5,504.981L489.5,504.981v-4.013l0,0V504.981z M477.5,505.5h-13v-3h13V505.5z M453.5,505.5h-13v-3h13
			V505.5z M429.5,505.5h-12v-3h12V505.5z M406.5,505.5h-12v-3h12V505.5z M382.5,505.5h-14v-3h14V505.5z M355.5,505.5h-9v-3h9V505.5z
			 M333.5,505.5h-10v-3h10V505.5z"/>
		<path fill="#FFFFC8" stroke="#FFFFC8" stroke-width="0.5998" stroke-miterlimit="10" d="M345.581,502.881
			c0,18.307-14.838,33.143-33.143,33.143c-18.303,0-33.141-14.836-33.141-33.143c0-18.301,14.837-33.141,33.141-33.141
			C330.742,469.74,345.581,484.58,345.581,502.881z"/>
		<circle fill="#FFFFC8" stroke="#FFFFC8" stroke-width="0.5998" stroke-miterlimit="10" cx="200.27" cy="503.004" r="9.207"/>
		<path fill="#FFFFC8" d="M802.5,598.74l-2.275-0.003c-25.814-0.029-49.895-10.022-67.912-28.14
			c-17.952-18.05-27.809-42.128-27.809-67.796c0-25.667,9.904-49.743,27.856-67.794c18.021-18.116,42.04-28.109,67.855-28.138
			l2.284-0.004V598.74z M797.5,411.702c-47,1.333-88.624,41.709-88.624,91.1c0,49.392,41.624,89.769,88.624,91.104V411.702z"/>
		<g>
			<path fill="#FFFFC8" d="M802.5,398.5h-5v-4.929c-1,0.031-2.146,0.083-3.375,0.15l-0.15-4.79c2.039-0.112,3.726-0.184,6.194-0.186
				l2.331-0.002V398.5z"/>
			<path fill="#FFFFC8" d="M802.5,598.5h-5v-11h5V598.5z M802.5,574.5h-5v-14h5V574.5z M802.5,548.5h-5v-14h5V548.5z M802.5,523.5
				h-5v-13h5V523.5z M802.5,499.5h-5v-14h5V499.5z M802.5,473.5h-5v-13h5V473.5z M802.5,448.5h-5v-14h5V448.5z M802.5,424.5h-5v-14
				h5V424.5z"/>
			<path fill="#FFFFC8" d="M802.5,616.862l-2.273-0.002c-2.521-0.002-4.136-0.012-6.204-0.125l0.071-4.792
				c1.23,0.069,2.406,0.098,3.406,0.108V608.5h5V616.862z"/>
			<path fill="#FFFFC8" d="M781.252,615.323c-4.196-0.706-8.395-1.662-12.479-2.835l1.355-4.721
				c3.908,1.124,7.924,2.037,11.938,2.715L781.252,615.323z M756.687,608.261c-3.931-1.628-7.809-3.499-11.533-5.563l2.381-4.292
				c3.561,1.973,7.273,3.764,11.031,5.321L756.687,608.261z M734.323,595.882c-3.462-2.462-6.829-5.149-10.001-7.984l3.271-3.661
				c3.037,2.716,6.26,5.287,9.575,7.643L734.323,595.882z M715.275,578.852c-2.837-3.172-5.523-6.536-7.982-9.995l4.001-2.846
				c2.354,3.312,4.925,6.53,7.643,9.569L715.275,578.852z M700.474,558.032c-2.062-3.722-3.931-7.599-5.56-11.519l4.535-1.882
				c1.557,3.754,3.348,7.461,5.319,11.021L700.474,558.032z M690.686,534.438c-1.177-4.082-2.133-8.282-2.842-12.479l4.841-0.816
				c0.681,4.013,1.594,8.032,2.717,11.936L690.686,534.438z M686.42,509.244c-0.118-2.127-0.177-4.293-0.18-6.442
				c0-2.107,0.059-4.242,0.176-6.349l4.9,0.269c-0.108,2.018-0.165,4.064-0.165,6.081c0,2.059,0.059,4.133,0.171,6.169
				L686.42,509.244z M692.669,484.552l-4.842-0.815c0.708-4.197,1.659-8.395,2.833-12.479l4.718,1.355
				C694.257,476.519,693.344,480.537,692.669,484.552z M699.417,461.049l-4.535-1.879c1.624-3.925,3.496-7.805,5.559-11.532
				l4.294,2.375C702.761,453.58,700.975,457.293,699.417,461.049z M711.257,439.647l-4.002-2.844
				c2.458-3.464,5.145-6.831,7.98-10.003l3.659,3.272C716.181,433.109,713.613,436.33,711.257,439.647z M727.552,421.407
				l-3.275-3.657c3.168-2.835,6.531-5.523,9.993-7.987l2.848,4C733.802,416.122,730.585,418.694,727.552,421.407z M747.474,407.235
				l-2.383-4.294c3.72-2.062,7.593-3.934,11.517-5.563l1.883,4.534C754.738,403.471,751.031,405.262,747.474,407.235z
				 M770.041,397.862l-1.358-4.718c4.082-1.177,8.282-2.134,12.477-2.845l0.82,4.84C777.967,395.818,773.95,396.733,770.041,397.862
				z"/>
		</g>
		<path fill="#FFFFC8" d="M678.5,505.5h-10v-3h10V505.5z M654.5,505.5h-12v-3h12V505.5z M629.5,505.5h-12v-3h12V505.5z M605.5,505.5
			h-11v-3h11V505.5z M583.5,505.5h-11v-3h11V505.5z M558.5,505.5h-12v-3h12V505.5z M533.5,505.5h-11v-3h11V505.5z M510.5,505.5h-2
			v-3h2V505.5z"/>
		<circle fill="#FFFFC8" stroke="#FFFFC8" stroke-width="0.5998" stroke-miterlimit="10" cx="688.034" cy="502.723" r="33.142"/>
		<circle fill="#FFFFC8" stroke="#FFFFC8" stroke-width="0.5998" stroke-miterlimit="10" cx="800.203" cy="502.603" r="9.206"/>
		<path fill="#FFFFC8" d="M500.236,514.02c-6.293,0-11.416-5.123-11.416-11.417s5.122-11.416,11.416-11.416
			c6.296,0,11.418,5.122,11.418,11.416S506.532,514.02,500.236,514.02z M500.236,495.604c-3.859,0-6.996,3.14-6.996,6.998
			c0,3.86,3.137,6.996,6.996,6.996s7-3.136,7-6.996C507.236,498.745,504.095,495.604,500.236,495.604z"/>
		<rect x="499.5" y="319.5" fill="#FFFFC8" width="3" height="176"/>
		<rect x="499.5" y="511.5" fill="#FFFFC8" width="3" height="177"/>
		<path fill="#FFFFC8" d="M201.585,689.219l-2.711-3.488c0.142-0.111,3.579-2.776,10.191-7.202l2.458,3.671
			C205.058,686.528,201.619,689.19,201.585,689.219z M213.556,680.851l-2.43-3.69c3.318-2.185,6.831-4.413,10.441-6.62l2.306,3.765
			C220.304,676.491,216.833,678.689,213.556,680.851z M234.394,668.081l-2.198-3.834c0.705-0.405,1.42-0.813,2.145-1.222
			l2.175,3.845C235.799,667.276,235.091,667.681,234.394,668.081z M247.238,660.989l-2.076-3.899
			c3.584-1.906,7.273-3.811,10.965-5.661l1.978,3.952C254.446,657.211,250.789,659.098,247.238,660.989z M260.294,654.292
			l-1.958-3.959c3.644-1.805,7.385-3.598,11.12-5.336l1.864,4.005C267.616,650.726,263.907,652.506,260.294,654.292z
			 M282.468,643.974l-1.77-4.045c0.75-0.33,1.504-0.659,2.262-0.987l1.75,4.061C283.958,643.325,283.211,643.648,282.468,643.974z
			 M295.995,638.283l-1.659-4.096c3.797-1.535,7.66-3.051,11.48-4.495l1.564,4.133C303.591,635.259,299.76,636.757,295.995,638.283z
			 M309.67,632.965l-1.547-4.139c3.814-1.424,7.717-2.832,11.598-4.182l1.452,4.17C317.323,630.157,313.453,631.552,309.67,632.965z
			 M332.765,624.929l-1.357-4.204c0.779-0.252,1.562-0.504,2.346-0.753l1.34,4.209C334.314,624.431,333.538,624.681,332.765,624.929
			z M346.786,620.606l-1.244-4.237c3.933-1.155,7.924-2.279,11.865-3.339l1.149,4.266
			C354.645,618.35,350.686,619.464,346.786,620.606z M360.919,616.666l-1.13-4.272c3.951-1.046,7.971-2.061,11.949-3.02l1.035,4.295
			C368.826,614.621,364.837,615.628,360.919,616.666z M384.69,610.942l-0.938-4.317c0.801-0.175,1.604-0.346,2.41-0.518l0.917,4.322
			C386.281,610.6,385.485,610.771,384.69,610.942z M399.066,608.021l-0.821-4.342c4.024-0.759,8.106-1.485,12.134-2.152l0.724,4.357
			C407.107,606.549,403.058,607.268,399.066,608.021z M413.514,605.491l-0.704-4.362c4.046-0.653,8.148-1.267,12.188-1.827
			l0.604,4.376C421.596,604.234,417.53,604.845,413.514,605.491z M437.73,602.141l-0.507-4.39c0.815-0.094,1.631-0.186,2.449-0.277
			l0.487,4.393C439.347,601.957,438.538,602.048,437.73,602.141z M452.322,600.654l-0.388-4.402
			c4.072-0.357,8.205-0.678,12.286-0.944l0.29,4.409C460.462,599.983,456.361,600.298,452.322,600.654z M466.949,599.563
			l-0.269-4.413c4.081-0.248,8.221-0.454,12.306-0.613l0.17,4.417C475.104,599.11,470.997,599.315,466.949,599.563z M491.376,598.62
			l-0.071-4.418c0.819-0.015,1.642-0.026,2.464-0.036l0.052,4.418C493.004,598.593,492.189,598.605,491.376,598.62z"/>
		<path fill="#FFFFC8" d="M506.664,407.598l-0.051-4.417c0.816-0.01,1.63-0.021,2.443-0.035l0.072,4.418
			C508.309,407.577,507.488,407.589,506.664,407.598z M521.448,407.228l-0.172-4.417c4.054-0.156,8.159-0.361,12.205-0.609
			l0.271,4.41C529.673,406.862,525.533,407.068,521.448,407.228z M536.215,406.457l-0.292-4.409
			c4.049-0.266,8.149-0.58,12.189-0.937l0.387,4.401C544.428,405.872,540.295,406.189,536.215,406.457z M560.762,404.292
			l-0.486-4.392c0.809-0.09,1.621-0.182,2.429-0.275l0.506,4.389C562.395,404.108,561.581,404.199,560.762,404.292z
			 M575.436,402.462l-0.606-4.376c4.021-0.557,8.089-1.166,12.09-1.812l0.706,4.361C583.589,401.287,579.49,401.901,575.436,402.462
			z M590.056,400.238l-0.726-4.359c4.006-0.666,8.058-1.383,12.036-2.137l0.823,4.342
			C598.176,398.843,594.095,399.567,590.056,400.238z M614.272,395.658l-0.917-4.323c0.798-0.169,1.596-0.34,2.389-0.513
			l0.939,4.318C615.88,395.314,615.077,395.486,614.272,395.658z M628.696,392.39l-1.035-4.296
			c3.938-0.947,7.928-1.955,11.855-2.995l1.131,4.271C636.687,390.418,632.666,391.434,628.696,392.39z M643.026,388.735
			l-1.149-4.267c3.92-1.055,7.879-2.169,11.771-3.312l1.246,4.239C650.965,386.547,646.974,387.672,643.026,388.735z
			 M666.678,381.793l-1.34-4.211c0.781-0.247,1.558-0.496,2.33-0.747l1.357,4.206C668.247,381.292,667.462,381.543,666.678,381.793z
			 M680.712,377.121l-1.452-4.174c3.837-1.333,7.706-2.729,11.506-4.147l1.544,4.14C688.479,374.368,684.58,375.776,680.712,377.121
			z M694.619,372.071l-1.566-4.132c3.803-1.441,7.635-2.94,11.386-4.458l1.657,4.095
			C702.313,369.107,698.451,370.619,694.619,372.071z M717.473,362.82l-1.751-4.057c0.752-0.324,1.5-0.649,2.243-0.975l1.769,4.05
			C718.987,362.166,718.233,362.493,717.473,362.82z M730.977,356.768l-1.864-4.006c3.699-1.721,7.406-3.5,11.027-5.291l1.958,3.961
			C738.447,353.238,734.707,355.033,730.977,356.768z M744.305,350.334l-1.978-3.952c3.659-1.831,7.317-3.718,10.868-5.607
			l2.074,3.9C751.686,346.581,747.997,348.485,744.305,350.334z M766.093,338.739l-2.176-3.848c0.719-0.405,1.426-0.808,2.122-1.208
			l2.199,3.833C767.532,337.921,766.817,338.328,766.093,338.739z M778.866,331.226l-2.307-3.77
			c3.577-2.188,7.049-4.389,10.317-6.542l2.431,3.691C785.996,326.784,782.484,329.013,778.866,331.226z M791.369,323.236
			l-2.459-3.671c6.466-4.33,9.903-6.994,9.937-7.019l2.712,3.489C801.414,316.146,797.981,318.81,791.369,323.236z"/>
		
			<path fill="none" stroke="#FFFFC8" stroke-width="8.4026" stroke-miterlimit="10" stroke-dasharray="52.5162,2.1006,4.2013,2.1006" d="
			M646.008,824.248c0-98.439,79.801-178.24,178.238-178.24"/>
		
			<path fill="none" stroke="#FFFFC8" stroke-width="8.4026" stroke-miterlimit="10" stroke-dasharray="52.5162,2.1006,4.2013,2.1006" d="
			M354.716,176.476c0,98.438-79.803,178.239-178.24,178.239"/>
		<path fill="#FFFFC8" d="M176.476,358.916v-8.402c11.881,0,23.751-1.205,35.28-3.578l1.694,8.231
			C201.365,357.654,188.925,358.916,176.476,358.916z M215.554,354.72l-1.791-8.209c1.33-0.29,2.674-0.601,3.995-0.922l1.986,8.164
			C218.359,354.091,216.949,354.416,215.554,354.72z M221.831,353.233l-2.084-8.141c16.573-4.239,32.41-10.912,47.065-19.83
			l4.369,7.178C255.814,341.79,239.21,348.787,221.831,353.233z M273.007,331.315l-4.453-7.126c1.157-0.724,2.316-1.467,3.447-2.211
			l4.619,7.02C275.434,329.777,274.218,330.557,273.007,331.315z M278.405,327.808l-4.701-6.965
			c14.195-9.58,26.887-21.174,37.721-34.461l6.512,5.311C306.582,305.617,293.282,317.768,278.405,327.808z M319.286,290.018
			l-6.574-5.233c0.849-1.066,1.696-2.157,2.519-3.241l6.694,5.078C321.064,287.759,320.176,288.901,319.286,290.018z
			 M323.217,284.898l-6.754-4.998c10.213-13.799,18.297-28.965,24.03-45.074l7.917,2.817
			C342.399,254.534,333.923,270.432,323.217,284.898z M349.12,235.604l-7.95-2.723c0.44-1.286,0.873-2.6,1.288-3.91l8.011,2.533
			C350.036,232.877,349.582,234.257,349.12,235.604z M351.108,229.443l-8.042-2.437c4.942-16.315,7.448-33.316,7.448-50.531h8.403
			C358.917,194.517,356.289,212.335,351.108,229.443z"/>
		<path fill="#FFFFC8" d="M650.209,824.248h-8.401c0-18.04,2.626-35.862,7.808-52.967l8.042,2.437
			C652.716,790.031,650.209,807.033,650.209,824.248z M658.265,771.75l-8.011-2.531c0.431-1.367,0.885-2.749,1.351-4.101
			l7.947,2.723C659.11,769.131,658.676,770.445,658.265,771.75z M660.23,765.896l-7.916-2.815
			c6.009-16.891,14.486-32.792,25.191-47.255l6.757,4.995C674.046,734.625,665.963,749.789,660.23,765.896z M685.491,719.181
			l-6.695-5.078c0.863-1.139,1.75-2.28,2.639-3.397l6.575,5.233C687.162,717.005,686.315,718.096,685.491,719.181z M689.296,714.342
			l-6.513-5.312c11.355-13.925,24.656-26.076,39.535-36.117l4.7,6.968C712.823,689.459,700.131,701.054,689.296,714.342z
			 M728.723,678.746l-4.619-7.021c1.187-0.78,2.401-1.559,3.609-2.315l4.458,7.126C731.012,677.255,729.852,678.001,728.723,678.746
			z M733.911,675.461l-4.369-7.178c15.366-9.35,31.97-16.347,49.351-20.794l2.083,8.142
			C764.401,659.871,748.565,666.544,733.911,675.461z M782.965,655.134l-1.985-8.162c1.375-0.337,2.786-0.662,4.188-0.968
			l1.794,8.208C785.621,654.502,784.278,654.816,782.965,655.134z M788.966,653.785l-1.693-8.228
			c12.085-2.489,24.524-3.751,36.974-3.751v8.403C812.367,650.21,800.496,651.414,788.966,653.785z"/>
		<path fill="#FFFFC8" d="M483.5,463.52h9.968v14.975l-33.608-0.048v-10.738l23.641,0.049V463.52z"/>
		<path fill="#FFFFC8" d="M482.344,462.365h-22.485V451.58h22.197c1.204,0,1.829-0.53,1.829-1.589c0-1.06-0.625-1.589-1.829-1.589
			h-22.197v-10.737h22.485c7.414,0,11.652,4.333,11.652,12.326C493.996,457.984,489.758,462.365,482.344,462.365z"/>
		<path fill="#FFFFC8" d="M476.663,407.092c10.591,0,16.804,6.163,16.804,16.515v11.604h-33.608v-11.604
			C459.859,413.254,466.022,407.092,476.663,407.092z M476.663,418.647c-4.093,0-6.596,1.733-6.596,5.007v0.819h13.192v-0.819
			C483.26,420.381,480.707,418.647,476.663,418.647z"/>
		<path fill="#FFFFC8" d="M483.982,387.833h9.486v17.622h-33.608v-17.573h9.533v6.837h2.841v-5.296h8.426v5.344h3.323V387.833z"/>
		<path fill="#FFFFC8" d="M476.663,388.026c-10.737,0-17.19-7.077-17.19-16.852c0-0.867,0.049-1.975,0.241-3.227h11.941
			c-0.386,1.011-0.578,1.975-0.578,2.889c0,2.648,1.589,5.248,5.585,5.248c3.996,0,5.585-2.599,5.585-5.248
			c0-0.914-0.192-1.878-0.578-2.889h11.941c0.191,1.252,0.241,2.36,0.241,3.227C493.852,380.949,487.4,388.026,476.663,388.026z"/>
		<path fill="#FFFFC8" d="M490.097,350.954v5.778l3.371,0.433v10.4l-33.608-5.874v-15.698l33.608-6.066v10.593L490.097,350.954z
			 M481.43,352.061l-13.962,1.782l13.962,1.781V352.061z"/>
		<path fill="#FFFFC8" d="M469.826,324.665v3.467h23.641v10.738h-23.641v3.467h-9.967v-17.671H469.826z"/>
		<g>
			<path fill="#371A00" d="M800.44,199.887v600.555H199.886V199.887H800.44 M806.922,193.404h-6.482H199.886h-6.482v6.482v600.555
				v6.482h6.482H800.44h6.482v-6.482V199.887V193.404L806.922,193.404z"/>
		</g>
	</g>
</g>
<g id="Ebene_5">
	<path fill="#371A00" d="M886.33,113.066h-16.2v51.84h16.2V113.066L886.33,113.066z M853.93,113.066h-77.761v51.84h77.761V113.066
		L853.93,113.066z M763.209,113.066H568.808v51.84h194.401V113.066L763.209,113.066z M439.208,113.066h-16.201v51.84h16.201V113.066
		L439.208,113.066z M406.808,113.066h-77.76v51.84h77.76V113.066L406.808,113.066z M316.088,113.066H121.687v51.84h194.401V113.066
		L316.088,113.066z M164.907,234.047h-51.84v16.2h51.84V234.047L164.907,234.047z M164.907,266.447h-51.84v77.761h51.84V266.447
		L164.907,266.447z M164.907,357.167h-51.84v194.401h51.84V357.167L164.907,357.167z M164.907,681.169h-51.84v16.2h51.84V681.169
		L164.907,681.169z M164.907,713.569h-51.84v77.761h51.84V713.569L164.907,713.569z M164.907,804.289h-51.84v82.041h51.84l0,0l0,0
		l0,0l0,0c29.459,0,60.52,0,60.52,0v-51.842h-60.52V804.289L164.907,804.289z M371.228,834.488h-16.2v51.842h16.2V834.488
		L371.228,834.488z M465.189,834.488h-77.761v51.842h77.761V834.488L465.189,834.488z M672.55,834.488H478.148v51.842H672.55
		V834.488L672.55,834.488z M818.35,834.488h-16.2v51.842h16.2V834.488L818.35,834.488z M886.33,652.988h-51.842v194.4h0.062v12.961
		h-0.062v25.98h0.062l0,0h-0.062h0.062l0,0h51.78V652.988L886.33,652.988z M886.33,507.188h-51.842v16.2h51.842V507.188
		L886.33,507.188z M886.33,413.228h-51.842v77.76h51.842V413.228L886.33,413.228z M886.33,205.866h-51.842v194.401h51.842V205.866
		L886.33,205.866z"/>
</g>
</svg>
