<?xml version="1.0" encoding="utf-8"?>
<!-- Generator: Adobe Illustrator 25.2.1, SVG Export Plug-In . SVG Version: 6.00 Build 0)  -->
<svg version="1.1" id="Layer_1" xmlns="http://www.w3.org/2000/svg" xmlns:xlink="http://www.w3.org/1999/xlink" x="0px" y="0px"
	 viewBox="0 0 613.5 613.5" style="enable-background:new 0 0 613.5 613.5;" xml:space="preserve">
<style type="text/css">
	.st0{font-family:'MyriadPro-Regular';}
	.st1{font-size:12px;}
	.st2{fill:#FFD143;}
	.st3{fill:#FA8613;}
	.st4{fill:#F7A422;}
	.st5{fill:#FCD64D;}
	.st6{fill:#F78512;}
	.st7{fill:#F8A622;}
	.st8{fill:#F58213;}
	.st9{fill:#F68412;}
	.st10{fill:#FAA723;}
	.st11{fill:#E0862A;}
	.st12{fill:#FFFFAE;}
	.st13{fill:#FDD951;}
	.st14{fill:#F98514;}
	.st15{fill:#FDD950;}
	.st16{fill:#F58212;}
	.st17{fill:#F9A623;}
	.st18{fill:#FB9A14;}
	.st19{fill:none;stroke:#F7A422;stroke-width:1.1996;stroke-miterlimit:10;}
	.st20{fill:#FFFFC8;}
	.st21{fill:#FFFFC8;stroke:#FFFFC8;stroke-width:0.5998;stroke-miterlimit:10;}
	.st22{fill:none;stroke:#FFFFC8;stroke-width:8.4026;stroke-miterlimit:10;stroke-dasharray:52.5162,2.1006,4.2013,2.1006;}
	.st23{fill:#371A00;}
</style>
<text transform="matrix(1 0 0 1 297.6377 420.9449)" class="st0 st1">console.log(playerCells[0][&quot;x&quot;], playerCells[0][&quot;y&quot;])</text>
<g id="Ebene_4">
	<rect x="4.1" class="st2" width="605" height="613.5"/>
</g>
<g id="Ebene_3">
	<g>
		<g>
			<g>
				<path class="st3" d="M258.2,466.6l11.8,22.8c5.2-14.3,12.3-34,14.1-39.9L258.2,466.6z"/>
				<path class="st3" d="M215.2,489.4l11.8-22.8l-26-17.1C202.8,455.4,209.9,475.1,215.2,489.4"/>
				<polygon class="st3" points="242.6,512.2 229.1,502.9 217,514.9 242.6,532.7 268.2,514.9 256.2,502.9 				"/>
				<polygon class="st3" points="242.6,535.6 216.9,517.7 235.4,610.5 241.3,607.8 241.2,550.9 244,550.9 244,607.8 249.8,610.5 
					268.3,517.7 				"/>
				<polygon class="st3" points="271.2,609.1 286.8,607.5 274.4,599.3 269.3,602.7 268,600.8 274.4,596.6 278.8,599.6 284.4,592.7 
					263.9,553.6 253.3,606.8 				"/>
				<polygon class="st3" points="231.9,606.8 221.3,553.6 200.8,592.7 206.4,599.6 210.8,596.6 217.2,600.8 215.9,602.7 
					210.8,599.3 198.4,607.5 214,609.1 				"/>
				<path class="st3" d="M202.3,584.8l6.6-12.8l-24.3-39.4C188.6,544.3,196.7,568.1,202.3,584.8"/>
				<path class="st3" d="M255.1,480.7c-0.9,0-1.7,0.7-1.7,1.7c0,0.9,0.7,1.7,1.7,1.7c0.9,0,1.7-0.7,1.7-1.7
					C256.7,481.4,256,480.7,255.1,480.7"/>
				<path class="st3" d="M255.8,467.1h-26.4l-12.6,24.3l25.8,18l25.8-18L255.8,467.1z M233,483h-2v2h-1.3v-2h-2v-1.3h2v-2h1.3v2h2
					V483z M242.6,487.8l-1.8-1.6l0.7-0.7l0,0h0l0,0l1,1.1l1-1.1l0.7,0.7L242.6,487.8z M255.1,485.2c-1.6,0-2.8-1.3-2.8-2.8
					c0-1.6,1.3-2.8,2.8-2.8c1.6,0,2.8,1.3,2.8,2.8C257.9,483.9,256.6,485.2,255.1,485.2"/>
			</g>
		</g>
		<g>
			<g>
				<path class="st3" d="M400.5,145.6L389,123.4c-5.1,13.9-12,33-13.7,38.8L400.5,145.6z"/>
				<path class="st3" d="M442.4,123.4l-11.5,22.2l25.2,16.6C454.3,156.5,447.5,137.3,442.4,123.4"/>
				<polygon class="st3" points="415.7,101.2 428.9,110.3 440.6,98.6 415.7,81.3 390.8,98.6 402.5,110.3 				"/>
				<polygon class="st3" points="415.7,78.5 440.6,95.9 422.7,5.7 417,8.3 417,63.7 414.4,63.7 414.4,8.3 408.7,5.7 390.7,95.9 				
					"/>
				<polygon class="st3" points="387.9,7 372.7,8.6 384.8,16.6 389.7,13.3 391,15.1 384.8,19.2 380.5,16.3 375,23 395,61 405.3,9.3 
									"/>
				<polygon class="st3" points="426.1,9.3 436.4,61 456.3,23 450.8,16.3 446.6,19.2 440.4,15.1 441.6,13.3 446.6,16.6 458.6,8.6 
					443.5,7 				"/>
				<path class="st3" d="M454.9,30.7l-6.5,12.4L472,81.4C468.2,70.1,460.4,46.9,454.9,30.7"/>
				<path class="st3" d="M403.6,131.9c0.9,0,1.6-0.7,1.6-1.6c0-0.9-0.7-1.6-1.6-1.6c-0.9,0-1.6,0.7-1.6,1.6
					C401.9,131.2,402.7,131.9,403.6,131.9"/>
				<path class="st3" d="M402.9,145.1h25.6l12.3-23.6L415.7,104l-25.1,17.5L402.9,145.1z M425,129.7h1.9v-1.9h1.3v1.9h1.9v1.3h-1.9
					v1.9h-1.3v-1.9H425V129.7z M415.7,125l1.7,1.6l-0.7,0.7l0,0h0l0,0l-1-1.1l-1,1.1l-0.7-0.7L415.7,125z M403.6,127.6
					c1.5,0,2.7,1.2,2.7,2.7c0,1.5-1.2,2.7-2.7,2.7c-1.5,0-2.7-1.2-2.7-2.7C400.8,128.8,402,127.6,403.6,127.6"/>
			</g>
		</g>
		<g>
			<g>
				<polygon class="st4" points="398.1,357.6 592.1,357.6 556.8,422.4 398.1,422.4 				"/>
			</g>
			<g>
				<polygon class="st5" points="134.2,262 144.4,276.2 144.4,397.4 134.2,411.7 				"/>
			</g>
			<g>
				<polygon class="st6" points="119.2,296.2 129.8,293.3 126.2,279.3 119.2,281.2 119.2,268.7 134.2,262 134.2,411.7 119.2,405.5 
									"/>
			</g>
			<g>
				<rect x="76.6" y="328" class="st3" width="164.3" height="1.2"/>
			</g>
			<g>
				<path class="st7" d="M160.4,387.1c-27.8,0-50.4-22.6-50.4-50.4c0-27.8,22.6-50.4,50.4-50.4c27.8,0,50.4,22.6,50.4,50.4
					c0,9.4-2.6,18.2-7.1,25.8l-28.3-31.8l-15.1,22.4l24.6,27.6C177.6,384.8,169.3,387.1,160.4,387.1z"/>
			</g>
			<g>
				<circle class="st8" cx="181.3" cy="300.2" r="22.5"/>
			</g>
			<g>
				<polygon class="st9" points="134.1,336 129.9,336 112.4,389.4 134.3,389.4 				"/>
			</g>
			<g>
				<polygon class="st10" points="59.7,396.9 78.3,264.1 91.5,265.9 70.4,416.8 				"/>
			</g>
			<g>
				<polygon class="st11" points="199.5,319.1 162.1,281.6 162.5,281.2 198.9,317.6 198.9,245.1 179.8,264.3 179.4,263.9 
					199.5,243.7 				"/>
			</g>
			<g>
				
					<rect x="141.5" y="316.2" transform="matrix(0.7075 -0.7067 0.7067 0.7075 -175.6885 209.1674)" class="st8" width="46.7" height="1.2"/>
			</g>
			<g>
				
					<rect x="147.1" y="331.2" transform="matrix(0.7072 -0.707 0.707 0.7072 -193.3311 206.4697)" class="st12" width="11.1" height="10.8"/>
				<path class="st8" d="M152.5,345.2l-8.5-8.5l8.7-8.7l8.5,8.5L152.5,345.2z M145.7,336.7l6.8,6.8l7-7l-6.8-6.8L145.7,336.7z"/>
			</g>
			<g>
				
					<rect x="164.6" y="412.3" transform="matrix(0.7208 -0.6931 0.6931 0.7208 -228.9539 260.0373)" class="st13" width="87.4" height="3.8"/>
			</g>
			<g>
				
					<rect x="157" y="404.5" transform="matrix(0.7484 -0.6632 0.6632 0.7484 -219.059 235.3156)" class="st14" width="87.4" height="3.8"/>
			</g>
			<g>
				
					<rect x="219.1" y="314.1" transform="matrix(0.7515 -0.6597 0.6597 0.7515 -196.71 239.3448)" class="st3" width="0.6" height="133.3"/>
			</g>
			<g>
				<path class="st15" d="M263.4,430.8h0.4V399h-0.4c8.6,0,15.6,7.3,15.6,15.9C278.9,423.5,272,430.8,263.4,430.8z"/>
			</g>
			<g>
				
					<rect x="23.8" y="368.7" transform="matrix(0.1377 -0.9905 0.9905 0.1377 -295.4519 399.2029)" class="st14" width="115.6" height="1.2"/>
			</g>
			<g>
				<polygon class="st16" points="51.4,416.8 68.3,426.6 51.4,436.3 				"/>
			</g>
			<g>
				<polygon class="st4" points="263.3,361.6 535.4,252.2 247.5,328.9 				"/>
			</g>
			<g>
				<path class="st17" d="M434.2,414.4c-36.5,0-69.2-25.9-76.3-63.1l0.6-0.1c8,41.8,48.5,69.2,90.2,61.2c41.8-8,69.2-48.5,61.3-90.2
					l0.6-0.1c8,42.1-19.7,82.9-61.7,90.9C443.9,414,439,414.4,434.2,414.4z"/>
			</g>
			<g>
				<path class="st3" d="M351.7,514.6c-41.6,0-82.2-12.4-117.3-36.3c-46.3-31.5-77.6-79.1-88.2-134.1c-10.5-55,1-110.8,32.5-157.1
					c31.4-46.3,79.1-77.6,134-88.2l0.1,0.6c-113.2,21.7-187.7,131.4-166,244.6c21.7,113.2,131.4,187.7,244.6,166.1l0.1,0.6
					C378.2,513.3,364.9,514.6,351.7,514.6z"/>
			</g>
			<g>
				
					<rect x="304.8" y="342.5" transform="matrix(0.7715 -0.6363 0.6363 0.7715 -119.0945 355.2358)" class="st4" width="260.4" height="1.8"/>
			</g>
			<g>
				<path class="st18" d="M358.2,363.6c-7.3,0-13.2-5.9-13.2-13.2c0-7.3,5.9-13.2,13.2-13.2c7.3,0,13.2,5.9,13.2,13.2
					C371.4,357.7,365.5,363.6,358.2,363.6z"/>
				<path class="st11" d="M358.2,363.9c-7.5,0-13.5-6.1-13.5-13.5s6.1-13.5,13.5-13.5c7.5,0,13.5,6.1,13.5,13.5
					S365.7,363.9,358.2,363.9z M358.2,337.5c-7.1,0-12.9,5.8-12.9,12.9c0,7.1,5.8,12.9,12.9,12.9c7.1,0,12.9-5.8,12.9-12.9
					C371.1,343.2,365.3,337.5,358.2,337.5z"/>
			</g>
			<g>
				<path class="st15" d="M31.9,362.6v-49h33L31.9,362.6z M33.1,314.8v43.9l29.6-43.9L33.1,314.8L33.1,314.8z"/>
			</g>
			<g>
				
					<rect x="11.7" y="325" transform="matrix(0.5785 -0.8157 0.8157 0.5785 -250.896 165.6299)" class="st15" width="46.2" height="1.2"/>
			</g>
		</g>
		<path class="st4" d="M479.1,460.6l-0.4-0.4l-16.8,16.8l0.4,0.4c-4.6-4.6-4.4-12.1,0.2-16.7C467,456.3,474.6,456.1,479.1,460.6z"/>
		<path class="st4" d="M495.6,468.9l-0.4-0.4l-25.1,25.1l0.4,0.4c-6.8-6.8-6.6-18.1,0.2-24.9C477.6,462.3,488.8,462.1,495.6,468.9z"
			/>
		<path class="st4" d="M594,567.3l-0.4-0.4L568.6,592l0.4,0.3c-6.8-6.8-6.6-18.1,0.2-24.9C575.9,560.7,587.2,560.5,594,567.3z"/>
		<line class="st19" x1="462.4" y1="460.8" x2="661.7" y2="660.1"/>
		<path class="st4" d="M141.3,158.9l0.4,0.4l16.8-16.8l-0.4-0.4c4.6,4.6,4.4,12.1-0.2,16.7C153.4,163.3,145.9,163.4,141.3,158.9z"/>
		<path class="st4" d="M124.8,150.6l0.4,0.4l25.1-25.1l-0.4-0.4c6.8,6.8,6.6,18.1-0.2,24.9C142.9,157.2,131.6,157.5,124.8,150.6z"/>
		<path class="st4" d="M26.5,52.3l0.4,0.4l25.1-25.1l-0.4-0.4c6.8,6.8,6.6,18.1-0.2,24.9C44.5,58.9,33.3,59.1,26.5,52.3z"/>
		<line class="st19" x1="158" y1="158.8" x2="-41.3" y2="-40.5"/>
		<path class="st20" d="M4.1,405.3V213.5l2.4,0c25.8,0,50,10,68,28.1c18,18.1,27.9,42.1,27.9,67.8c0,25.7-9.9,49.7-27.8,67.8
			c-18,18.1-42.2,28.1-68,28.1L4.1,405.3z M9.1,218.3v182.2c49-1.3,88.6-41.7,88.6-91.1C97.7,260,58.1,219.6,9.1,218.3z"/>
		<g>
			<path class="st20" d="M4.1,423.5v-8.4h5v3.6c1,0,2.3,0,3.5-0.1l0.2,4.8c-2.1,0.1-3.8,0.1-6.3,0.1L4.1,423.5z"/>
			<path class="st20" d="M9.1,403.1h-5v-13h5V403.1z M9.1,379.1h-5v-16h5V379.1z M9.1,352.1h-5v-14h5V352.1z M9.1,326.1h-5v-12h5
				V326.1z M9.1,302.1h-5v-13h5V302.1z M9.1,277.1h-5v-14h5V277.1z M9.1,251.1h-5v-13h5V251.1z M9.1,228.1h-5v-14h5V228.1z"/>
			<path class="st20" d="M9.1,205.1h-5v-9.8l2.4,0c2.5,0,4.2,0.1,6.3,0.2l-0.2,4.8c-1.2-0.1-2.5-0.1-3.5-0.1V205.1z"/>
			<path class="st20" d="M25.9,421.9l-0.8-4.8c4-0.7,8-1.6,11.9-2.7l1.4,4.7C34.3,420.2,30.1,421.2,25.9,421.9z M50.5,414.8
				l-1.9-4.5c3.8-1.6,7.5-3.3,11-5.3l2.4,4.3C58.3,411.3,54.4,413.2,50.5,414.8z M72.8,402.4l-2.8-4c3.3-2.4,6.5-4.9,9.6-7.6
				l3.3,3.7C79.6,397.3,76.3,400,72.8,402.4z M91.8,385.4l-3.7-3.3c2.7-3,5.3-6.3,7.6-9.6l4,2.8C97.4,378.9,94.7,382.2,91.8,385.4z
				 M106.6,364.6l-4.3-2.4c2-3.6,3.8-7.3,5.3-11l4.5,1.9C110.6,357,108.7,360.8,106.6,364.6z M116.4,340.9l-4.7-1.4
				c1.1-3.9,2-7.9,2.7-11.9l4.8,0.8C118.5,332.7,117.6,336.9,116.4,340.9z M120.7,315.7l-4.9-0.3c0.1-2,0.2-4.1,0.2-6.1
				c0-2.1-0.1-4.1-0.2-6.2l4.9-0.3c0.1,2.1,0.2,4.3,0.2,6.4C120.8,311.5,120.8,313.6,120.7,315.7z M114.4,291.1
				c-0.7-4-1.6-8-2.7-11.9l4.7-1.4c1.2,4.1,2.1,8.3,2.8,12.5L114.4,291.1z M107.6,267.6c-1.6-3.8-3.3-7.5-5.3-11l4.3-2.4
				c2.1,3.7,3.9,7.6,5.6,11.5L107.6,267.6z M95.8,246.2c-2.4-3.3-4.9-6.5-7.6-9.6l3.7-3.3c2.8,3.2,5.5,6.5,8,10L95.8,246.2z
				 M79.5,228c-3-2.7-6.3-5.3-9.6-7.6l2.8-4c3.5,2.5,6.8,5.1,10,8L79.5,228z M59.5,213.8c-3.6-2-7.3-3.8-11-5.3l1.9-4.5
				c3.9,1.6,7.8,3.5,11.5,5.6L59.5,213.8z M36.9,204.4c-3.9-1.1-7.9-2-11.9-2.7l0.8-4.8c4.2,0.7,8.4,1.7,12.5,2.8L36.9,204.4z"/>
		</g>
		<path class="st20" d="M296.1,311.6L296.1,311.6v-4l0,0V311.6z M284.1,312.1h-13v-3h13V312.1z M260.1,312.1h-13v-3h13V312.1z
			 M236.1,312.1h-12v-3h12V312.1z M213.1,312.1h-12v-3h12V312.1z M189.1,312.1h-14v-3h14V312.1z M162.1,312.1h-9v-3h9V312.1z
			 M140.1,312.1h-10v-3h10V312.1z"/>
		<path class="st21" d="M152.2,309.5c0,18.3-14.8,33.1-33.1,33.1c-18.3,0-33.1-14.8-33.1-33.1c0-18.3,14.8-33.1,33.1-33.1
			C137.3,276.3,152.2,291.2,152.2,309.5z"/>
		<circle class="st21" cx="6.9" cy="309.6" r="9.2"/>
		<path class="st20" d="M609.1,405.3l-2.3,0c-25.8,0-49.9-10-67.9-28.1c-18-18-27.8-42.1-27.8-67.8c0-25.7,9.9-49.7,27.9-67.8
			c18-18.1,42-28.1,67.9-28.1l2.3,0L609.1,405.3L609.1,405.3z M604.1,218.3c-47,1.3-88.6,41.7-88.6,91.1c0,49.4,41.6,89.8,88.6,91.1
			V218.3z"/>
		<g>
			<path class="st20" d="M609.1,205.1h-5v-4.9c-1,0-2.1,0.1-3.4,0.1l-0.2-4.8c2-0.1,3.7-0.2,6.2-0.2l2.3,0L609.1,205.1L609.1,205.1z
				"/>
			<path class="st20" d="M609.1,405.1h-5v-11h5V405.1z M609.1,381.1h-5v-14h5V381.1z M609.1,355.1h-5v-14h5V355.1z M609.1,330.1h-5
				v-13h5V330.1z M609.1,306.1h-5v-14h5V306.1z M609.1,280.1h-5v-13h5V280.1z M609.1,255.1h-5v-14h5V255.1z M609.1,231.1h-5v-14h5
				V231.1z"/>
			<path class="st20" d="M609.1,423.5l-2.3,0c-2.5,0-4.1,0-6.2-0.1l0.1-4.8c1.2,0.1,2.4,0.1,3.4,0.1v-3.6h5V423.5z"/>
			<path class="st20" d="M587.8,421.9c-4.2-0.7-8.4-1.7-12.5-2.8l1.4-4.7c3.9,1.1,7.9,2,11.9,2.7L587.8,421.9z M563.3,414.9
				c-3.9-1.6-7.8-3.5-11.5-5.6l2.4-4.3c3.6,2,7.3,3.8,11,5.3L563.3,414.9z M540.9,402.5c-3.5-2.5-6.8-5.1-10-8l3.3-3.7
				c3,2.7,6.3,5.3,9.6,7.6L540.9,402.5z M521.9,385.4c-2.8-3.2-5.5-6.5-8-10l4-2.8c2.4,3.3,4.9,6.5,7.6,9.6L521.9,385.4z
				 M507.1,364.6c-2.1-3.7-3.9-7.6-5.6-11.5l4.5-1.9c1.6,3.8,3.3,7.5,5.3,11L507.1,364.6z M497.3,341c-1.2-4.1-2.1-8.3-2.8-12.5
				l4.8-0.8c0.7,4,1.6,8,2.7,11.9L497.3,341z M493,315.8c-0.1-2.1-0.2-4.3-0.2-6.4c0-2.1,0.1-4.2,0.2-6.3l4.9,0.3
				c-0.1,2-0.2,4.1-0.2,6.1c0,2.1,0.1,4.1,0.2,6.2L493,315.8z M499.3,291.1l-4.8-0.8c0.7-4.2,1.7-8.4,2.8-12.5l4.7,1.4
				C500.9,283.1,499.9,287.1,499.3,291.1z M506,267.6l-4.5-1.9c1.6-3.9,3.5-7.8,5.6-11.5l4.3,2.4C509.4,260.2,507.6,263.9,506,267.6
				z M517.9,246.2l-4-2.8c2.5-3.5,5.1-6.8,8-10l3.7,3.3C522.8,239.7,520.2,242.9,517.9,246.2z M534.1,228l-3.3-3.7
				c3.2-2.8,6.5-5.5,10-8l2.8,4C540.4,222.7,537.2,225.3,534.1,228z M554.1,213.8l-2.4-4.3c3.7-2.1,7.6-3.9,11.5-5.6l1.9,4.5
				C561.3,210.1,557.6,211.9,554.1,213.8z M576.6,204.5l-1.4-4.7c4.1-1.2,8.3-2.1,12.5-2.8l0.8,4.8
				C584.6,202.4,580.5,203.3,576.6,204.5z"/>
		</g>
		<path class="st20" d="M485.1,312.1h-10v-3h10V312.1z M461.1,312.1h-12v-3h12V312.1z M436.1,312.1h-12v-3h12V312.1z M412.1,312.1
			h-11v-3h11V312.1z M390.1,312.1h-11v-3h11V312.1z M365.1,312.1h-12v-3h12V312.1z M340.1,312.1h-11v-3h11V312.1z M317.1,312.1h-2
			v-3h2V312.1z"/>
		<circle class="st21" cx="494.6" cy="309.3" r="33.1"/>
		<circle class="st21" cx="606.8" cy="309.2" r="9.2"/>
		<path class="st20" d="M306.8,320.6c-6.3,0-11.4-5.1-11.4-11.4s5.1-11.4,11.4-11.4c6.3,0,11.4,5.1,11.4,11.4
			S313.1,320.6,306.8,320.6z M306.8,302.2c-3.9,0-7,3.1-7,7c0,3.9,3.1,7,7,7s7-3.1,7-7C313.8,305.3,310.7,302.2,306.8,302.2z"/>
		<rect x="306.1" y="126.1" class="st20" width="3" height="176"/>
		<rect x="306.1" y="318.1" class="st20" width="3" height="177"/>
		<path class="st20" d="M8.2,495.8l-2.7-3.5c0.1-0.1,3.6-2.8,10.2-7.2l2.5,3.7C11.7,493.1,8.2,495.8,8.2,495.8z M20.2,487.4
			l-2.4-3.7c3.3-2.2,6.8-4.4,10.4-6.6l2.3,3.8C26.9,483.1,23.4,485.3,20.2,487.4z M41,474.7l-2.2-3.8c0.7-0.4,1.4-0.8,2.1-1.2
			l2.2,3.8C42.4,473.9,41.7,474.3,41,474.7z M53.8,467.6l-2.1-3.9c3.6-1.9,7.3-3.8,11-5.7l2,4C61,463.8,57.4,465.7,53.8,467.6z
			 M66.9,460.9l-2-4c3.6-1.8,7.4-3.6,11.1-5.3l1.9,4C74.2,457.3,70.5,459.1,66.9,460.9z M89.1,450.6l-1.8-4c0.8-0.3,1.5-0.7,2.3-1
			l1.8,4.1C90.6,449.9,89.8,450.2,89.1,450.6z M102.6,444.9l-1.7-4.1c3.8-1.5,7.7-3.1,11.5-4.5l1.6,4.1
			C110.2,441.9,106.4,443.4,102.6,444.9z M116.3,439.6l-1.5-4.1c3.8-1.4,7.7-2.8,11.6-4.2l1.5,4.2
			C123.9,436.8,120,438.1,116.3,439.6z M139.4,431.5l-1.4-4.2c0.8-0.3,1.6-0.5,2.3-0.8l1.3,4.2C140.9,431,140.1,431.3,139.4,431.5z
			 M153.4,427.2l-1.2-4.2c3.9-1.2,7.9-2.3,11.9-3.3l1.1,4.3C161.2,424.9,157.3,426.1,153.4,427.2z M167.5,423.3l-1.1-4.3
			c4-1,8-2.1,11.9-3l1,4.3C175.4,421.2,171.4,422.2,167.5,423.3z M191.3,417.5l-0.9-4.3c0.8-0.2,1.6-0.3,2.4-0.5l0.9,4.3
			C192.9,417.2,192.1,417.4,191.3,417.5z M205.7,414.6l-0.8-4.3c4-0.8,8.1-1.5,12.1-2.2l0.7,4.4
			C213.7,413.1,209.7,413.9,205.7,414.6z M220.1,412.1l-0.7-4.4c4-0.7,8.1-1.3,12.2-1.8l0.6,4.4
			C228.2,410.8,224.1,411.4,220.1,412.1z M244.3,408.7l-0.5-4.4c0.8-0.1,1.6-0.2,2.4-0.3l0.5,4.4
			C245.9,408.6,245.1,408.6,244.3,408.7z M258.9,407.2l-0.4-4.4c4.1-0.4,8.2-0.7,12.3-0.9l0.3,4.4
			C267.1,406.6,263,406.9,258.9,407.2z M273.5,406.2l-0.3-4.4c4.1-0.2,8.2-0.5,12.3-0.6l0.2,4.4
			C281.7,405.7,277.6,405.9,273.5,406.2z M298,405.2l-0.1-4.4c0.8,0,1.6,0,2.5,0l0.1,4.4C299.6,405.2,298.8,405.2,298,405.2z"/>
		<path class="st20" d="M313.3,214.2l-0.1-4.4c0.8,0,1.6,0,2.4,0l0.1,4.4C314.9,214.2,314.1,214.2,313.3,214.2z M328,213.8l-0.2-4.4
			c4.1-0.2,8.2-0.4,12.2-0.6l0.3,4.4C336.3,213.5,332.1,213.7,328,213.8z M342.8,213.1l-0.3-4.4c4-0.3,8.1-0.6,12.2-0.9l0.4,4.4
			C351,212.5,346.9,212.8,342.8,213.1z M367.4,210.9l-0.5-4.4c0.8-0.1,1.6-0.2,2.4-0.3l0.5,4.4C369,210.7,368.2,210.8,367.4,210.9z
			 M382,209.1l-0.6-4.4c4-0.6,8.1-1.2,12.1-1.8l0.7,4.4C390.2,207.9,386.1,208.5,382,209.1z M396.7,206.8l-0.7-4.4
			c4-0.7,8.1-1.4,12-2.1l0.8,4.3C404.8,205.4,400.7,206.2,396.7,206.8z M420.9,202.3l-0.9-4.3c0.8-0.2,1.6-0.3,2.4-0.5l0.9,4.3
			C422.5,201.9,421.7,202.1,420.9,202.3z M435.3,199l-1-4.3c3.9-0.9,7.9-2,11.9-3l1.1,4.3C443.3,197,439.3,198,435.3,199z
			 M449.6,195.3l-1.1-4.3c3.9-1.1,7.9-2.2,11.8-3.3l1.2,4.2C457.6,193.1,453.6,194.3,449.6,195.3z M473.3,188.4l-1.3-4.2
			c0.8-0.2,1.6-0.5,2.3-0.7l1.4,4.2C474.8,187.9,474.1,188.1,473.3,188.4z M487.3,183.7l-1.5-4.2c3.8-1.3,7.7-2.7,11.5-4.1l1.5,4.1
			C495.1,181,491.2,182.4,487.3,183.7z M501.2,178.7l-1.6-4.1c3.8-1.4,7.6-2.9,11.4-4.5l1.7,4.1C508.9,175.7,505,177.2,501.2,178.7z
			 M524.1,169.4l-1.8-4.1c0.8-0.3,1.5-0.6,2.2-1l1.8,4C525.6,168.8,524.8,169.1,524.1,169.4z M537.6,163.4l-1.9-4
			c3.7-1.7,7.4-3.5,11-5.3l2,4C545,159.8,541.3,161.6,537.6,163.4z M550.9,156.9l-2-4c3.7-1.8,7.3-3.7,10.9-5.6l2.1,3.9
			C558.3,153.2,554.6,155.1,550.9,156.9z M572.7,145.3l-2.2-3.8c0.7-0.4,1.4-0.8,2.1-1.2l2.2,3.8
			C574.1,144.5,573.4,144.9,572.7,145.3z M585.5,137.8l-2.3-3.8c3.6-2.2,7-4.4,10.3-6.5l2.4,3.7
			C592.6,133.4,589.1,135.6,585.5,137.8z M598,129.8l-2.5-3.7c6.5-4.3,9.9-7,9.9-7l2.7,3.5C608,122.7,604.6,125.4,598,129.8z"/>
		<path class="st22" d="M452.6,630.8c0-98.4,79.8-178.2,178.2-178.2"/>
		<path class="st22" d="M161.3-16.9c0,98.4-79.8,178.2-178.2,178.2"/>
		<path class="st20" d="M-16.9,165.5v-8.4c11.9,0,23.8-1.2,35.3-3.6l1.7,8.2C8,164.2-4.5,165.5-16.9,165.5z M22.1,161.3l-1.8-8.2
			c1.3-0.3,2.7-0.6,4-0.9l2,8.2C25,160.7,23.5,161,22.1,161.3z M28.4,159.8l-2.1-8.1c16.6-4.2,32.4-10.9,47.1-19.8l4.4,7.2
			C62.4,148.4,45.8,155.4,28.4,159.8z M79.6,137.9l-4.5-7.1c1.2-0.7,2.3-1.5,3.4-2.2l4.6,7C82,136.4,80.8,137.2,79.6,137.9z
			 M85,134.4l-4.7-7c14.2-9.6,26.9-21.2,37.7-34.5l6.5,5.3C113.2,112.2,99.9,124.4,85,134.4z M125.9,96.6l-6.6-5.2
			c0.8-1.1,1.7-2.2,2.5-3.2l6.7,5.1C127.7,94.4,126.8,95.5,125.9,96.6z M129.8,91.5l-6.8-5c10.2-13.8,18.3-29,24-45.1l7.9,2.8
			C149,61.1,140.5,77,129.8,91.5z M155.7,42.2l-8-2.7c0.4-1.3,0.9-2.6,1.3-3.9l8,2.5C156.6,39.5,156.2,40.9,155.7,42.2z M157.7,36
			l-8-2.4c4.9-16.3,7.4-33.3,7.4-50.5h8.4C165.5,1.1,162.9,18.9,157.7,36z"/>
		<path class="st20" d="M456.8,630.8h-8.4c0-18,2.6-35.9,7.8-53l8,2.4C459.3,596.6,456.8,613.6,456.8,630.8z M464.9,578.3l-8-2.5
			c0.4-1.4,0.9-2.7,1.4-4.1l7.9,2.7C465.7,575.7,465.3,577,464.9,578.3z M466.8,572.5l-7.9-2.8c6-16.9,14.5-32.8,25.2-47.3l6.8,5
			C480.6,541.2,472.6,556.4,466.8,572.5z M492.1,525.8l-6.7-5.1c0.9-1.1,1.8-2.3,2.6-3.4l6.6,5.2
			C493.8,523.6,492.9,524.7,492.1,525.8z M495.9,520.9l-6.5-5.3c11.4-13.9,24.7-26.1,39.5-36.1l4.7,7
			C519.4,496.1,506.7,507.7,495.9,520.9z M535.3,485.3l-4.6-7c1.2-0.8,2.4-1.6,3.6-2.3l4.5,7.1C537.6,483.9,536.4,484.6,535.3,485.3
			z M540.5,482.1l-4.4-7.2c15.4-9.3,32-16.3,49.4-20.8l2.1,8.1C571,466.5,555.2,473.1,540.5,482.1z M589.6,461.7l-2-8.2
			c1.4-0.3,2.8-0.7,4.2-1l1.8,8.2C592.2,461.1,590.9,461.4,589.6,461.7z M595.6,460.4l-1.7-8.2c12.1-2.5,24.5-3.8,37-3.8v8.4
			C619,456.8,607.1,458,595.6,460.4z"/>
		<path class="st20" d="M290.1,270.1h10v15l-33.6,0v-10.7l23.6,0L290.1,270.1L290.1,270.1z"/>
		<path class="st20" d="M288.9,269h-22.5v-10.8h22.2c1.2,0,1.8-0.5,1.8-1.6c0-1.1-0.6-1.6-1.8-1.6h-22.2v-10.7h22.5
			c7.4,0,11.7,4.3,11.7,12.3C300.6,264.6,296.4,269,288.9,269z"/>
		<path class="st20" d="M283.3,213.7c10.6,0,16.8,6.2,16.8,16.5v11.6h-33.6v-11.6C266.5,219.8,272.6,213.7,283.3,213.7z
			 M283.3,225.2c-4.1,0-6.6,1.7-6.6,5v0.8h13.2v-0.8C289.9,227,287.3,225.2,283.3,225.2z"/>
		<path class="st20" d="M290.6,194.4h9.5v17.6h-33.6v-17.6h9.5v6.8h2.8V196h8.4v5.3h3.3L290.6,194.4L290.6,194.4z"/>
		<path class="st20" d="M283.3,194.6c-10.7,0-17.2-7.1-17.2-16.9c0-0.9,0-2,0.2-3.2h11.9c-0.4,1-0.6,2-0.6,2.9
			c0,2.6,1.6,5.2,5.6,5.2c4,0,5.6-2.6,5.6-5.2c0-0.9-0.2-1.9-0.6-2.9h11.9c0.2,1.3,0.2,2.4,0.2,3.2
			C300.4,187.5,294,194.6,283.3,194.6z"/>
		<path class="st20" d="M296.7,157.6v5.8l3.4,0.4v10.4l-33.6-5.9v-15.7l33.6-6.1v10.6L296.7,157.6z M288,158.7l-14,1.8l14,1.8V158.7
			z"/>
		<path class="st20" d="M276.4,131.3v3.5h23.6v10.7h-23.6v3.5h-10v-17.7L276.4,131.3L276.4,131.3z"/>
		<g>
			<path class="st23" d="M607,6.5V607H6.5V6.5H607 M613.5,0H607H6.5H0v6.5V607v6.5h6.5H607h6.5V607V6.5V0L613.5,0z"/>
		</g>
	</g>
</g>
</svg>
