<?xml version="1.0" encoding="utf-8"?>
<!-- Generator: Adobe Illustrator 16.0.0, SVG Export Plug-In . SVG Version: 6.00 Build 0)  -->
<!DOCTYPE svg PUBLIC "-//W3C//DTD SVG 1.1//EN" "http://www.w3.org/Graphics/SVG/1.1/DTD/svg11.dtd">
<svg version="1.1" xmlns="http://www.w3.org/2000/svg" xmlns:xlink="http://www.w3.org/1999/xlink" x="0px" y="0px" width="1000px"
	 height="1000px" viewBox="0 0 1000 1000" enable-background="new 0 0 1000 1000" xml:space="preserve">
<g id="Ebene_4">
	<radialGradient id="SVGID_1_" cx="499.6985" cy="499.6982" r="507.6568" gradientUnits="userSpaceOnUse">
		<stop  offset="0.0664" style="stop-color:#FFD85B"/>
		<stop  offset="1" style="stop-color:#FFC53D"/>
	</radialGradient>
	<rect x="0" fill="url(#SVGID_1_)" width="999.396" height="999.396"/>
	<path fill="#371A00" d="M886.33,113.066h-16.2v51.84h16.2V113.066L886.33,113.066z M853.93,113.066h-77.761v51.84h77.761V113.066
		L853.93,113.066z M763.209,113.066H568.808v51.84h194.401V113.066L763.209,113.066z M439.208,113.066h-16.201v51.84h16.201V113.066
		L439.208,113.066z M406.808,113.066h-77.76v51.84h77.76V113.066L406.808,113.066z M316.088,113.066H121.687v51.84h194.401V113.066
		L316.088,113.066z M164.907,234.047h-51.84v16.2h51.84V234.047L164.907,234.047z M164.907,266.447h-51.84v77.761h51.84V266.447
		L164.907,266.447z M164.907,357.167h-51.84v194.401h51.84V357.167L164.907,357.167z M164.907,681.169h-51.84v16.2h51.84V681.169
		L164.907,681.169z M164.907,713.569h-51.84v77.761h51.84V713.569L164.907,713.569z M164.907,804.289h-51.84v82.041h51.84l0,0l0,0
		l0,0l0,0c29.459,0,60.52,0,60.52,0v-51.842h-60.52V804.289L164.907,804.289z M371.228,834.488h-16.2v51.842h16.2V834.488
		L371.228,834.488z M465.189,834.488h-77.761v51.842h77.761V834.488L465.189,834.488z M672.55,834.488H478.148v51.842H672.55
		V834.488L672.55,834.488z M818.35,834.488h-16.2v51.842h16.2V834.488L818.35,834.488z M886.33,652.988h-51.842v194.4h0.062v12.961
		h-0.062v25.98h0.062l0,0h-0.062h0.062l0,0h51.78V652.988L886.33,652.988z M886.33,507.188h-51.842v16.2h51.842V507.188
		L886.33,507.188z M886.33,413.228h-51.842v77.76h51.842V413.228L886.33,413.228z M886.33,205.866h-51.842v194.401h51.842V205.866
		L886.33,205.866z"/>
</g>
<g id="Ebene_3">
	<g>
		<g>
			<g>
				<path fill="#FA8613" d="M451.916,659.292l11.782,22.707c5.208-14.229,12.255-33.821,14.05-39.694L451.916,659.292z"/>
				<path fill="#FA8613" d="M409.017,681.999l11.78-22.709l-25.832-16.985C396.761,648.178,403.807,667.771,409.017,681.999"/>
				<polygon fill="#FA8613" points="436.355,704.748 422.855,695.429 410.863,707.417 436.359,725.157 461.848,707.417 
					449.859,695.429 				"/>
				<polygon fill="#FA8613" points="436.354,728.048 410.797,710.232 429.195,802.597 435.006,799.915 434.997,743.221 
					437.712,743.221 437.703,799.915 443.516,802.597 461.913,710.232 				"/>
				<polygon fill="#FA8613" points="464.842,801.203 480.328,799.625 467.988,791.44 462.93,794.802 461.666,792.951 
					468.016,788.713 472.364,791.668 477.983,784.876 457.536,745.916 446.981,798.851 				"/>
				<polygon fill="#FA8613" points="425.731,798.851 415.176,745.916 394.729,784.876 400.349,791.668 404.698,788.713 
					411.047,792.951 409.782,794.802 404.726,791.44 392.384,799.625 407.871,801.203 				"/>
				<path fill="#FA8613" d="M396.18,776.963l6.614-12.693l-24.146-39.228C382.627,736.64,390.617,760.386,396.18,776.963"/>
				<path fill="#FA8613" d="M448.768,673.342c-0.908,0-1.647,0.737-1.647,1.647c0,0.908,0.739,1.649,1.647,1.649
					c0.909,0,1.646-0.741,1.646-1.649C450.415,674.079,449.677,673.342,448.768,673.342"/>
				<path fill="#FA8613" d="M449.482,659.803h-26.249l-12.57,24.199l25.69,17.875l25.695-17.875L449.482,659.803z M426.76,675.637
					h-1.942v1.943h-1.298v-1.943h-1.944v-1.298h1.944v-1.943h1.298v1.943h1.942V675.637z M436.357,680.45l-1.746-1.6l0.707-0.742
					l-0.003-0.002h0.007l-0.004,0.002l1.036,1.093l1.042-1.095l0.71,0.744L436.357,680.45z M448.768,677.795
					c-1.546,0-2.805-1.26-2.805-2.807c0-1.548,1.259-2.807,2.805-2.807c1.547,0,2.805,1.259,2.805,2.807
					C451.573,676.535,450.316,677.795,448.768,677.795"/>
			</g>
		</g>
		<g>
			<g>
				<path fill="#FA8613" d="M593.503,339.806l-11.452-22.078c-5.064,13.833-11.916,32.883-13.661,38.59L593.503,339.806z"/>
				<path fill="#FA8613" d="M635.21,317.729l-11.453,22.078l25.114,16.512C647.124,350.611,640.274,331.561,635.21,317.729"/>
				<polygon fill="#FA8613" points="608.631,295.612 621.756,304.671 633.412,293.016 608.627,275.772 583.848,293.016 
					595.502,304.671 				"/>
				<polygon fill="#FA8613" points="608.632,272.959 633.481,290.28 615.592,200.484 609.943,203.093 609.952,258.208 
					607.312,258.208 607.322,203.093 601.668,200.484 583.785,290.28 				"/>
				<polygon fill="#FA8613" points="580.938,201.84 565.881,203.374 577.879,211.332 582.794,208.065 584.025,209.862 
					577.85,213.983 573.624,211.111 568.163,217.713 588.041,255.589 598.302,204.128 				"/>
				<polygon fill="#FA8613" points="618.96,204.128 629.222,255.589 649.1,217.713 643.635,211.111 639.41,213.983 633.237,209.862 
					634.463,208.065 639.381,211.332 651.38,203.374 636.324,201.84 				"/>
				<path fill="#FA8613" d="M647.688,225.407l-6.429,12.338l23.475,38.139C660.865,264.606,653.098,241.521,647.688,225.407"/>
				<path fill="#FA8613" d="M596.564,326.146c0.881,0,1.598-0.719,1.598-1.603c0-0.883-0.717-1.603-1.598-1.603
					c-0.882,0-1.602,0.72-1.602,1.603C594.962,325.427,595.682,326.146,596.564,326.146"/>
				<path fill="#FA8613" d="M595.87,339.309h25.519l12.22-23.529l-24.976-17.376l-24.98,17.376L595.87,339.309z M617.959,323.914
					h1.888v-1.891h1.261v1.891h1.891v1.259h-1.891v1.889h-1.261v-1.889h-1.888V323.914z M608.628,319.232l1.697,1.556l-0.687,0.722
					l0.002,0.003h-0.004l0.002-0.003l-1.006-1.062l-1.013,1.065l-0.69-0.725L608.628,319.232z M596.564,321.814
					c1.503,0,2.726,1.223,2.726,2.729c0,1.503-1.223,2.728-2.726,2.728c-1.505,0-2.728-1.225-2.728-2.728
					C593.836,323.038,595.059,321.814,596.564,321.814"/>
			</g>
		</g>
		<g>
			<g>
				<polygon fill="#F7A422" points="591.11,550.852 784.256,550.852 749.156,615.332 591.11,615.332 				"/>
			</g>
			<g>
				<polygon fill="#FCD64D" points="328.406,455.603 338.555,469.748 338.555,590.474 328.406,604.637 				"/>
			</g>
			<g>
				<polygon fill="#F78512" points="313.479,489.679 324.095,486.788 320.47,472.892 313.479,474.79 313.479,462.33 
					328.406,455.603 328.406,604.637 313.479,598.546 				"/>
			</g>
			<g>
				<rect x="271.088" y="521.299" fill="#FA8613" width="163.593" height="1.191"/>
			</g>
			<g>
				<path fill="#F8A622" d="M354.511,580.176c-27.698,0-50.149-22.453-50.149-50.146c0-27.695,22.451-50.147,50.149-50.147
					c27.694,0,50.146,22.452,50.146,50.147c0,9.377-2.576,18.15-7.054,25.659l-28.158-31.632l-15.019,22.347l24.445,27.464
					C371.659,577.887,363.354,580.176,354.511,580.176z"/>
			</g>
			<g>
				<circle fill="#F58213" cx="375.339" cy="493.687" r="22.423"/>
			</g>
			<g>
				<polygon fill="#F68412" points="328.342,529.356 324.161,529.356 306.715,582.493 328.499,582.493 				"/>
			</g>
			<g>
				<polygon fill="#FAA723" points="254.318,589.938 272.834,457.703 285.967,459.542 264.935,609.756 				"/>
			</g>
			<g>
				<polygon fill="#E0862A" points="393.485,512.453 356.213,475.152 356.636,474.729 392.888,511.01 392.888,438.829 
					373.865,457.922 373.443,457.501 393.485,437.384 				"/>
			</g>
			<g>
				
					<rect x="358.336" y="486.99" transform="matrix(0.7067 0.7075 -0.7075 0.7067 466.2736 -104.2986)" fill="#F58213" width="1.195" height="46.487"/>
			</g>
			<g>
				
					<rect x="341.272" y="524.539" transform="matrix(0.7072 -0.707 0.707 0.7072 -273.1386 400.3656)" fill="#FFFFAE" width="11.014" height="10.789"/>
				<path fill="#F58213" d="M346.7,538.487l-8.474-8.474l8.632-8.634l8.474,8.475L346.7,538.487z M339.914,530.014l6.786,6.784
					l6.944-6.943l-6.786-6.786L339.914,530.014z"/>
			</g>
			<g>
				
					<rect x="400.287" y="563.706" transform="matrix(0.693 0.721 -0.721 0.693 561.2557 -103.5419)" fill="#FDD951" width="3.821" height="86.999"/>
			</g>
			<g>
				
					<rect x="392.667" y="555.928" transform="matrix(0.6632 0.7485 -0.7485 0.6632 581.5656 -93.4233)" fill="#F98514" width="3.823" height="86.989"/>
			</g>
			<g>
				
					<rect x="346.863" y="573.629" transform="matrix(0.6597 0.7515 -0.7515 0.6597 571.9224 -115.2486)" fill="#FA8613" width="132.725" height="0.597"/>
			</g>
			<g>
				<path fill="#FDD950" d="M457.007,623.692h0.361v-31.645h-0.361c8.564,0,15.508,7.256,15.508,15.822
					C472.514,616.436,465.572,623.692,457.007,623.692z"/>
			</g>
			<g>
				
					<rect x="275.408" y="504.906" transform="matrix(0.9905 0.1375 -0.1375 0.9905 79.9706 -32.6132)" fill="#F98514" width="1.193" height="115.057"/>
			</g>
			<g>
				<polygon fill="#F58212" points="246.012,609.72 262.871,619.453 246.012,629.188 				"/>
			</g>
			<g>
				<polygon fill="#F7A422" points="456.965,554.825 727.795,445.921 441.206,522.227 				"/>
			</g>
			<g>
				<path fill="#F9A623" d="M627.026,607.378c-36.365,0.003-68.871-25.82-75.951-62.824l0.585-0.114
					c7.954,41.568,48.25,68.922,89.817,60.967c41.569-7.951,68.924-48.24,60.979-89.809l0.587-0.113
					c8.007,41.893-19.561,82.495-61.453,90.51C636.703,606.926,631.828,607.378,627.026,607.378z"/>
			</g>
			<g>
				<path fill="#FA8613" d="M544.923,707.082c-41.38,0-81.799-12.337-116.791-36.097c-46.115-31.31-77.277-78.703-87.75-133.448
					c-10.47-54.747,1.003-110.297,32.307-156.416c31.304-46.118,78.692-77.288,133.436-87.766l0.112,0.587
					c-112.683,21.568-186.822,130.793-165.268,243.48c21.553,112.689,130.764,186.844,243.456,165.303l0.114,0.585
					C571.334,705.835,558.078,707.082,544.923,707.082z"/>
			</g>
			<g>
				
					<rect x="626.941" y="407.052" transform="matrix(0.6365 0.7713 -0.7713 0.6365 642.0911 -289.1646)" fill="#F7A422" width="1.79" height="259.192"/>
			</g>
			<g>
				<circle fill="#FB9A14" cx="551.435" cy="543.614" r="13.154"/>
				<path fill="#E0862A" d="M551.435,557.067c-7.418,0-13.453-6.035-13.453-13.452c0-7.418,6.035-13.454,13.453-13.454
					c7.416,0,13.453,6.036,13.453,13.454C564.888,551.032,558.851,557.067,551.435,557.067z M551.435,530.758
					c-7.089,0-12.856,5.769-12.856,12.857c0,7.087,5.768,12.855,12.856,12.855s12.855-5.769,12.855-12.855
					C564.29,536.526,558.524,530.758,551.435,530.758z"/>
			</g>
			<g>
				<path fill="#FDD950" d="M226.609,555.746v-48.779h32.875L226.609,555.746z M227.802,508.162v43.676l29.437-43.676H227.802z"/>
			</g>
			<g>
				
					<rect x="228.875" y="495.954" transform="matrix(0.8154 0.5788 -0.5788 0.8154 342.7214 -37.0558)" fill="#FDD950" width="1.193" height="45.94"/>
			</g>
		</g>
		<path fill="#F7A422" d="M671.781,653.382l-0.354-0.353l-16.741,16.743l0.351,0.353c-4.531-4.535-4.367-12.047,0.163-16.577
			C659.735,649.016,667.249,648.85,671.781,653.382z"/>
		<path fill="#F7A422" d="M688.205,661.595l-0.349-0.351L662.902,686.2l0.349,0.351c-6.775-6.778-6.569-17.973,0.206-24.75
			C670.237,655.025,681.431,654.816,688.205,661.595z"/>
		<path fill="#F7A422" d="M786.135,759.523l-0.349-0.35l-24.957,24.956l0.349,0.348c-6.776-6.777-6.567-17.971,0.207-24.746
			C768.167,752.954,779.357,752.747,786.135,759.523z"/>
		
			<line fill="none" stroke="#F7A422" stroke-width="1.1941" stroke-miterlimit="10" x1="655.162" y1="653.504" x2="853.546" y2="851.89"/>
		<path fill="#F7A422" d="M335.543,353.017l0.351,0.351l16.742-16.743l-0.35-0.35c4.531,4.532,4.367,12.046-0.165,16.576
			C347.588,357.383,340.074,357.549,335.543,353.017z"/>
		<path fill="#F7A422" d="M319.117,344.805l0.35,0.349l24.956-24.956l-0.349-0.351c6.776,6.776,6.569,17.972-0.208,24.748
			C337.089,351.373,325.893,351.582,319.117,344.805z"/>
		<path fill="#F7A422" d="M221.187,246.876l0.351,0.349l24.956-24.956l-0.349-0.35c6.775,6.777,6.567,17.972-0.207,24.748
			C239.159,253.444,227.965,253.651,221.187,246.876z"/>
		
			<line fill="none" stroke="#F7A422" stroke-width="1.1941" stroke-miterlimit="10" x1="352.162" y1="352.894" x2="153.777" y2="154.508"/>
		<path fill="#FFFFC8" d="M199.5,598.333V407.334l2.139,0.004c25.699,0.027,49.603,9.976,67.54,28.009
			c17.874,17.969,27.652,41.935,27.652,67.485c0,25.551-9.875,49.521-27.747,67.487c-17.937,18.034-41.73,27.982-67.43,28.011
			L199.5,598.333z M204.5,412.147v181.374c48-1.328,88.219-41.52,88.219-90.688C292.719,453.666,252.5,413.474,204.5,412.147z"/>
		<g>
			<path fill="#FFFFC8" d="M199.5,616.372V608.5h5v3.083c1-0.011,1.995-0.039,3.226-0.106l0.077,4.77
				c-2.054,0.112-3.565,0.122-6.075,0.124L199.5,616.372z"/>
			<path fill="#FFFFC8" d="M204.5,596.5h-5v-13h5V596.5z M204.5,572.5h-5v-16h5V572.5z M204.5,545.5h-5v-14h5V545.5z M204.5,519.5
				h-5v-12h5V519.5z M204.5,495.5h-5v-13h5V495.5z M204.5,470.5h-5v-14h5V470.5z M204.5,444.5h-5v-13h5V444.5z M204.5,421.5h-5v-14
				h5V421.5z"/>
			<path fill="#FFFFC8" d="M204.5,398.5h-5v-9.207l2.138,0.002c2.457,0.002,4.083,0.073,6.111,0.185l0.039,4.768
				c-1.225-0.067-2.287-0.119-3.287-0.149V398.5z"/>
			<path fill="#FFFFC8" d="M220.638,614.826l-0.816-4.817c3.997-0.678,7.994-1.591,11.882-2.712l1.354,4.694
				C228.993,613.164,224.815,614.116,220.638,614.826z M245.079,607.777l-1.874-4.515c3.735-1.551,7.425-3.334,10.967-5.299
				l2.371,4.274C252.842,604.291,248.985,606.154,245.079,607.777z M267.314,595.449l-2.834-3.982c3.3-2.35,6.503-4.907,9.522-7.609
				l3.258,3.641C274.108,590.32,270.761,592.997,267.314,595.449z M286.263,578.488l-3.643-3.256
				c2.699-3.021,5.258-6.229,7.603-9.531l3.985,2.83C291.758,571.979,289.084,575.331,286.263,578.488z M300.991,557.748
				l-4.276-2.367c1.962-3.546,3.743-7.241,5.292-10.985l4.516,1.871C304.904,550.178,303.042,554.039,300.991,557.748z
				 M310.726,534.234l-4.696-1.35c1.117-3.889,2.024-7.89,2.695-11.884l4.82,0.811C312.842,525.988,311.893,530.167,310.726,534.234
				z M314.95,509.153l-4.879-0.268c0.109-2.002,0.165-4.037,0.165-6.054c0-2.042-0.057-4.108-0.17-6.138l4.879-0.273
				c0.118,2.122,0.178,4.28,0.178,6.411C315.123,504.937,315.065,507.064,314.95,509.153z M308.711,484.579
				c-0.676-3.996-1.585-7.995-2.706-11.882l4.696-1.353c1.171,4.065,2.123,8.244,2.829,12.42L308.711,484.579z M301.978,461.193
				c-1.551-3.735-3.333-7.426-5.297-10.969l4.275-2.369c2.052,3.704,3.913,7.561,5.534,11.465L301.978,461.193z M290.187,439.914
				c-2.346-3.299-4.905-6.503-7.607-9.524l3.642-3.258c2.823,3.156,5.497,6.503,7.948,9.951L290.187,439.914z M273.958,421.77
				c-3.021-2.702-6.228-5.261-9.528-7.607l2.831-3.984c3.448,2.451,6.798,5.125,9.955,7.948L273.958,421.77z M254.111,407.667
				c-3.548-1.964-7.243-3.746-10.982-5.297l1.872-4.514c3.909,1.62,7.77,3.482,11.479,5.535L254.111,407.667z M231.619,398.345
				c-3.889-1.119-7.888-2.026-11.884-2.7l0.812-4.819c4.178,0.705,8.357,1.655,12.422,2.823L231.619,398.345z"/>
		</g>
		<path fill="#FFFFC8" d="M489.5,505.002L489.5,505.002v-3.995l0,0V505.002z M477.5,505.5h-13v-3h13V505.5z M453.5,505.5h-13v-3h13
			V505.5z M429.5,505.5h-12v-3h12V505.5z M406.5,505.5h-12v-3h12V505.5z M382.5,505.5h-13v-3h13V505.5z M356.5,505.5h-9v-3h9V505.5z
			 M334.5,505.5h-10v-3h10V505.5z"/>
		<circle fill="#FFFFC8" stroke="#FFFFC8" stroke-width="0.5971" stroke-miterlimit="10" cx="313.339" cy="502.911" r="32.991"/>
		<circle fill="#FFFFC8" stroke="#FFFFC8" stroke-width="0.5971" stroke-miterlimit="10" cx="201.682" cy="503.032" r="9.164"/>
		<path fill="#FFFFC8" d="M801.5,598.333l-2.432-0.003c-25.697-0.029-49.751-9.977-67.686-28.012
			c-17.871-17.967-27.725-41.936-27.725-67.486c0-25.55,9.838-49.517,27.708-67.485c17.939-18.033,42.006-27.981,67.704-28.009
			l2.43-0.004V598.333z M796.5,412.147c-47,1.327-88.22,41.519-88.22,90.685c0,49.167,41.22,89.359,88.22,90.688V412.147z"/>
		<g>
			<path fill="#FFFFC8" d="M801.5,398.5h-5v-4.4c-1,0.03-2.292,0.082-3.515,0.149l-0.229-4.768c2.03-0.112,3.837-0.183,6.295-0.185
				l2.448-0.002V398.5z"/>
			<path fill="#FFFFC8" d="M801.5,598.5h-5v-11h5V598.5z M801.5,574.5h-5v-14h5V574.5z M801.5,548.5h-5v-14h5V548.5z M801.5,523.5
				h-5v-13h5V523.5z M801.5,499.5h-5v-14h5V499.5z M801.5,473.5h-5v-13h5V473.5z M801.5,448.5h-5v-14h5V448.5z M801.5,424.5h-5v-14
				h5V424.5z"/>
			<path fill="#FFFFC8" d="M801.5,616.372l-2.43-0.002c-2.51-0.002-4.201-0.012-6.26-0.124l0.184-4.77
				c1.228,0.067,2.506,0.096,3.506,0.106V608.5h5V616.372z"/>
			<path fill="#FFFFC8" d="M780.015,614.841c-4.178-0.704-8.356-1.654-12.423-2.823l1.35-4.698
				c3.891,1.119,7.888,2.028,11.885,2.702L780.015,614.841z M755.562,607.81c-3.913-1.62-7.773-3.482-11.48-5.537l2.37-4.272
				c3.544,1.963,7.239,3.746,10.98,5.296L755.562,607.81z M733.3,595.487c-3.446-2.45-6.798-5.126-9.955-7.947l3.256-3.646
				c3.023,2.704,6.23,5.264,9.531,7.608L733.3,595.487z M714.338,578.534c-2.823-3.156-5.498-6.506-7.946-9.949l3.983-2.832
				c2.343,3.296,4.902,6.5,7.607,9.525L714.338,578.534z M699.605,557.811c-2.052-3.704-3.912-7.563-5.534-11.466l4.515-1.873
				c1.55,3.736,3.333,7.427,5.295,10.971L699.605,557.811z M689.862,534.323c-1.172-4.063-2.123-8.245-2.829-12.422l4.819-0.813
				c0.677,3.995,1.586,7.995,2.704,11.881L689.862,534.323z M685.615,509.245c-0.118-2.117-0.176-4.273-0.179-6.413
				c0-2.098,0.059-4.223,0.175-6.32l4.878,0.268c-0.108,2.008-0.165,4.045-0.165,6.053c0,2.049,0.059,4.113,0.171,6.141
				L685.615,509.245z M691.836,484.665l-4.82-0.811c0.705-4.178,1.651-8.356,2.82-12.422l4.696,1.349
				C693.416,476.668,692.507,480.669,691.836,484.665z M698.553,461.269l-4.514-1.87c1.616-3.907,3.479-7.77,5.532-11.479
				l4.274,2.364C701.882,453.834,700.104,457.53,698.553,461.269z M710.339,439.965l-3.984-2.831
				c2.447-3.448,5.122-6.799,7.944-9.957l3.644,3.257C715.24,433.457,712.684,436.663,710.339,439.965z M726.56,421.808l-3.261-3.64
				c3.153-2.822,6.501-5.499,9.948-7.951l2.834,3.982C732.781,416.547,729.579,419.107,726.56,421.808z M746.391,407.701
				l-2.372-4.275c3.702-2.052,7.558-3.916,11.464-5.538l1.875,4.513C753.621,403.954,749.932,405.736,746.391,407.701z
				 M768.856,398.37l-1.353-4.697c4.063-1.171,8.245-2.125,12.42-2.832l0.816,4.817C776.744,396.336,772.747,397.247,768.856,398.37
				z"/>
		</g>
		<path fill="#FFFFC8" d="M677.5,505.5h-10v-3h10V505.5z M653.5,505.5h-12v-3h12V505.5z M629.5,505.5h-12v-3h12V505.5z M605.5,505.5
			h-11v-3h11V505.5z M583.5,505.5h-11v-3h11V505.5z M558.5,505.5h-12v-3h12V505.5z M533.5,505.5h-11v-3h11V505.5z M510.5,505.5h-2
			v-3h2V505.5z"/>
		<circle fill="#FFFFC8" stroke="#FFFFC8" stroke-width="0.5971" stroke-miterlimit="10" cx="687.223" cy="502.753" r="32.99"/>
		<circle fill="#FFFFC8" stroke="#FFFFC8" stroke-width="0.5971" stroke-miterlimit="10" cx="798.879" cy="502.633" r="9.164"/>
		<path fill="#FFFFC8" d="M500.28,513.998c-6.265,0-11.364-5.1-11.364-11.365c0-6.265,5.099-11.363,11.364-11.363
			c6.268,0,11.367,5.099,11.367,11.363C511.647,508.898,506.548,513.998,500.28,513.998z M500.28,495.667
			c-3.841,0-6.964,3.125-6.964,6.965c0,3.843,3.123,6.965,6.964,6.965s6.967-3.122,6.967-6.965
			C507.247,498.793,504.121,495.667,500.28,495.667z"/>
		<rect x="499.5" y="320.5" fill="#FFFFC8" width="3" height="175"/>
		<rect x="499.5" y="511.5" fill="#FFFFC8" width="3" height="176"/>
		<path fill="#FFFFC8" d="M202.99,688.398l-2.699-3.473c0.142-0.109,3.562-2.763,10.145-7.168l2.446,3.654
			C206.447,685.721,203.024,688.371,202.99,688.398z M214.906,680.069l-2.419-3.674c3.303-2.175,6.799-4.394,10.394-6.591
			l2.295,3.749C221.624,675.729,218.169,677.918,214.906,680.069z M235.65,667.357l-2.188-3.816c0.702-0.403,1.414-0.81,2.135-1.216
			l2.166,3.827C237.048,666.557,236.344,666.959,235.65,667.357z M248.435,660.298l-2.066-3.882
			c3.567-1.897,7.24-3.793,10.915-5.635l1.969,3.934C255.61,656.537,251.97,658.416,248.435,660.298z M261.431,653.632l-1.949-3.941
			c3.627-1.796,7.351-3.581,11.069-5.312l1.855,3.987C268.721,650.082,265.029,651.854,261.431,653.632z M283.505,643.36
			l-1.762-4.027c0.746-0.328,1.497-0.655,2.251-0.981l1.742,4.041C284.988,642.715,284.244,643.036,283.505,643.36z
			 M296.969,637.695l-1.651-4.076c3.78-1.529,7.625-3.037,11.427-4.476l1.558,4.114
			C304.531,634.685,300.718,636.177,296.969,637.695z M310.582,632.401l-1.54-4.119c3.796-1.418,7.682-2.82,11.545-4.163
			l1.445,4.151C318.2,629.606,314.348,630.995,310.582,632.401z M333.573,624.402l-1.351-4.186c0.775-0.251,1.554-0.501,2.335-0.749
			l1.334,4.19C335.115,623.906,334.342,624.154,333.573,624.402z M347.53,620.1l-1.239-4.219c3.915-1.149,7.888-2.268,11.811-3.323
			l1.144,4.246C355.353,617.853,351.411,618.962,347.53,620.1z M361.598,616.177l-1.125-4.252c3.933-1.042,7.934-2.053,11.895-3.006
			l1.03,4.275C369.469,614.141,365.498,615.144,361.598,616.177z M385.26,610.479l-0.934-4.298c0.797-0.174,1.598-0.344,2.399-0.515
			l0.913,4.302C386.844,610.139,386.052,610.308,385.26,610.479z M399.571,607.572l-0.817-4.322
			c4.006-0.756,8.069-1.479,12.079-2.144l0.72,4.339C407.575,606.105,403.545,606.821,399.571,607.572z M413.954,605.053
			l-0.701-4.343c4.028-0.649,8.111-1.261,12.133-1.817l0.601,4.355C421.998,603.802,417.95,604.41,413.954,605.053z
			 M438.059,601.718l-0.505-4.37c0.812-0.093,1.624-0.184,2.438-0.275l0.484,4.373C439.669,601.535,438.863,601.625,438.059,601.718
			z M452.584,600.238l-0.386-4.382c4.053-0.356,8.167-0.675,12.23-0.94l0.289,4.39C460.687,599.57,456.605,599.883,452.584,600.238z
			 M467.145,599.152l-0.268-4.393c4.063-0.247,8.184-0.452,12.25-0.61l0.17,4.396C475.262,598.701,471.174,598.906,467.145,599.152z
			 M491.46,598.213l-0.071-4.397c0.815-0.015,1.634-0.026,2.454-0.036l0.051,4.397C493.08,598.186,492.27,598.198,491.46,598.213z"
			/>
		<path fill="#FFFFC8" d="M506.679,408.062l-0.051-4.397c0.813-0.009,1.623-0.021,2.433-0.034l0.072,4.398
			C508.317,408.041,507.498,408.053,506.679,408.062z M521.395,407.693l-0.17-4.396c4.034-0.155,8.122-0.359,12.149-0.606
			l0.269,4.39C529.583,407.33,525.462,407.535,521.395,407.693z M536.095,406.926l-0.291-4.389
			c4.031-0.265,8.112-0.578,12.134-0.932l0.385,4.381C544.271,406.344,540.156,406.66,536.095,406.926z M560.53,404.771
			l-0.484-4.372c0.806-0.089,1.614-0.181,2.419-0.274l0.503,4.369C562.156,404.588,561.345,404.679,560.53,404.771z
			 M575.137,402.949l-0.604-4.356c4.002-0.554,8.052-1.161,12.034-1.803l0.703,4.341
			C583.253,401.779,579.172,402.391,575.137,402.949z M589.691,400.735l-0.723-4.339c3.988-0.663,8.021-1.377,11.981-2.127
			l0.819,4.322C597.774,399.347,593.711,400.068,589.691,400.735z M613.796,396.177l-0.913-4.303
			c0.794-0.169,1.588-0.339,2.378-0.511l0.935,4.298C615.397,395.834,614.598,396.006,613.796,396.177z M628.154,392.923
			l-1.03-4.276c3.921-0.943,7.892-1.946,11.802-2.981l1.125,4.252C636.109,390.961,632.106,391.972,628.154,392.923z
			 M642.419,389.286l-1.146-4.248c3.902-1.05,7.844-2.159,11.717-3.296l1.241,4.22C650.323,387.107,646.349,388.227,642.419,389.286
			z M665.963,382.375l-1.333-4.192c0.777-0.246,1.55-0.494,2.318-0.744l1.352,4.187
			C667.526,381.876,666.744,382.126,665.963,382.375z M679.933,377.724l-1.444-4.155c3.819-1.327,7.67-2.716,11.452-4.128
			l1.538,4.122C687.665,374.983,683.783,376.385,679.933,377.724z M693.777,372.697l-1.559-4.113
			c3.785-1.434,7.601-2.927,11.334-4.438l1.649,4.076C701.436,369.747,697.592,371.252,693.777,372.697z M716.527,363.489
			l-1.743-4.039c0.748-0.323,1.494-0.646,2.233-0.97l1.761,4.031C718.033,362.837,717.282,363.163,716.527,363.489z
			 M729.969,357.463l-1.856-3.988c3.683-1.712,7.373-3.484,10.978-5.266l1.949,3.943
			C737.405,353.95,733.682,355.736,729.969,357.463z M743.237,351.059l-1.969-3.934c3.643-1.823,7.283-3.702,10.818-5.582
			l2.064,3.883C750.584,347.323,746.911,349.219,743.237,351.059z M764.925,339.517l-2.165-3.83
			c0.715-0.404,1.418-0.805,2.112-1.203l2.188,3.815C766.358,338.703,765.646,339.108,764.925,339.517z M777.64,332.038
			l-2.295-3.752c3.56-2.178,7.016-4.369,10.27-6.513l2.419,3.674C784.738,327.616,781.241,329.834,777.64,332.038z M790.086,324.084
			l-2.448-3.654c6.437-4.31,9.859-6.961,9.892-6.987l2.699,3.473C800.086,317.026,796.667,319.678,790.086,324.084z"/>
		
			<path fill="none" stroke="#FFFFC8" stroke-width="8.3643" stroke-miterlimit="10" stroke-dasharray="52.2768,2.0911,4.1821,2.0911" d="
			M645.388,822.813c0-97.99,79.437-177.427,177.425-177.427"/>
		
			<path fill="none" stroke="#FFFFC8" stroke-width="8.3643" stroke-miterlimit="10" stroke-dasharray="52.2768,2.0911,4.1821,2.0911" d="
			M355.423,177.993c0,97.989-79.439,177.427-177.427,177.427"/>
		<path fill="#FFFFC8" d="M177.996,359.602v-8.363c11.827,0,23.643-1.199,35.12-3.562l1.687,8.193
			C202.771,358.345,190.388,359.602,177.996,359.602z M216.895,355.425l-1.783-8.172c1.324-0.288,2.662-0.598,3.977-0.917
			l1.977,8.126C219.687,354.799,218.284,355.122,216.895,355.425z M223.144,353.944l-2.074-8.104
			c16.498-4.22,32.262-10.862,46.851-19.739l4.349,7.145C256.972,342.554,240.444,349.519,223.144,353.944z M274.086,332.126
			l-4.433-7.093c1.152-0.72,2.306-1.46,3.432-2.201l4.598,6.987C276.503,330.596,275.292,331.372,274.086,332.126z M279.46,328.636
			l-4.679-6.933c14.13-9.536,26.764-21.077,37.549-34.304l6.482,5.287C307.509,306.546,294.269,318.642,279.46,328.636z
			 M320.155,291.018l-6.543-5.209c0.845-1.061,1.688-2.147,2.507-3.227l6.664,5.055
			C321.925,288.769,321.041,289.906,320.155,291.018z M324.068,285.922l-6.724-4.975c10.167-13.736,18.214-28.833,23.92-44.869
			l7.88,2.804C343.162,255.696,334.725,271.521,324.068,285.922z M349.853,236.853l-7.914-2.71c0.438-1.28,0.869-2.588,1.282-3.892
			l7.975,2.521C350.764,234.137,350.312,235.511,349.853,236.853z M351.832,230.719l-8.005-2.425
			c4.919-16.241,7.414-33.164,7.414-50.3h8.365C359.605,195.952,356.99,213.689,351.832,230.719z"/>
		<path fill="#FFFFC8" d="M649.57,822.813h-8.363c0-17.958,2.613-35.698,7.772-52.726l8.005,2.426
			C652.065,788.752,649.57,805.676,649.57,822.813z M657.589,770.554l-7.975-2.52c0.429-1.361,0.88-2.736,1.344-4.082l7.911,2.71
			C658.43,767.946,657.998,769.255,657.589,770.554z M659.544,764.728l-7.88-2.803c5.981-16.813,14.42-32.643,25.077-47.04
			l6.726,4.973C673.298,733.598,665.251,748.693,659.544,764.728z M684.691,718.225l-6.664-5.056
			c0.859-1.133,1.742-2.27,2.627-3.382l6.545,5.21C686.354,716.059,685.51,717.145,684.691,718.225z M688.479,713.407l-6.483-5.287
			c11.304-13.861,24.544-25.957,39.354-35.952l4.679,6.936C711.899,688.639,699.264,700.18,688.479,713.407z M727.725,677.974
			l-4.598-6.988c1.181-0.777,2.39-1.553,3.594-2.306l4.437,7.094C730.004,676.49,728.849,677.232,727.725,677.974z M732.89,674.704
			l-4.35-7.146c15.297-9.307,31.824-16.271,49.126-20.699l2.073,8.104C763.24,659.186,747.477,665.827,732.89,674.704z
			 M781.72,654.47l-1.977-8.126c1.369-0.335,2.773-0.658,4.17-0.962l1.786,8.17C784.365,653.841,783.027,654.153,781.72,654.47z
			 M787.694,653.127l-1.686-8.189c12.029-2.479,24.413-3.734,36.805-3.734v8.365C810.989,649.568,799.172,650.767,787.694,653.127z"
			/>
		<path fill="#FFFFC8" d="M483.62,463.729h9.922v14.906l-33.455-0.048v-10.689l23.533,0.049V463.729z"/>
		<path fill="#FFFFC8" d="M482.47,462.58h-22.383v-10.736h22.096c1.198,0,1.821-0.527,1.821-1.582c0-1.055-0.623-1.582-1.821-1.582
			h-22.096v-10.688h22.383c7.38,0,11.599,4.313,11.599,12.271C494.069,458.218,489.85,462.58,482.47,462.58z"/>
		<path fill="#FFFFC8" d="M476.815,407.558c10.542,0,16.728,6.135,16.728,16.44v11.551h-33.455v-11.551
			C460.087,413.692,466.222,407.558,476.815,407.558z M476.815,419.062c-4.075,0-6.566,1.725-6.566,4.984v0.815h13.132v-0.815
			C483.381,420.787,480.841,419.062,476.815,419.062z"/>
		<path fill="#FFFFC8" d="M484.1,388.388h9.442v17.541h-33.455v-17.493h9.489v6.806h2.828v-5.272h8.388v5.32h3.308V388.388z"/>
		<path fill="#FFFFC8" d="M476.815,388.58c-10.688,0-17.112-7.045-17.112-16.775c0-0.863,0.049-1.965,0.24-3.212h11.887
			c-0.384,1.007-0.576,1.966-0.576,2.876c0,2.636,1.582,5.224,5.56,5.224c3.978,0,5.56-2.587,5.56-5.224
			c0-0.91-0.191-1.87-0.576-2.876h11.887c0.191,1.247,0.24,2.349,0.24,3.212C493.925,381.535,487.503,388.58,476.815,388.58z"/>
		<path fill="#FFFFC8" d="M490.187,351.676v5.751l3.355,0.431v10.353l-33.455-5.847v-15.626l33.455-6.039v10.545L490.187,351.676z
			 M481.56,352.778l-13.899,1.773l13.899,1.773V352.778z"/>
		<path fill="#FFFFC8" d="M470.009,325.507v3.451h23.534v10.689h-23.534v3.451h-9.921v-17.591H470.009z"/>
		<g>
			<path fill="#371A00" d="M799.115,201.297v597.817H201.3V201.297H799.115 M805.569,194.845h-6.453H201.3h-6.453v6.453v597.817
				v6.452h6.453h597.816h6.453v-6.452V201.297V194.845L805.569,194.845z"/>
		</g>
	</g>
</g>
</svg>
